<svg width="63" height="62" viewBox="0 0 63 62" fill="none" xmlns="http://www.w3.org/2000/svg">
<rect x="0.5" width="62" height="62" rx="31" fill="#990033"/>
<path fill-rule="evenodd" clip-rule="evenodd" d="M25.5 22H19.5C19.2348 22 18.9804 22.1054 18.7929 22.2929C18.6054 22.4804 18.5 22.7348 18.5 23V26.1012C18.5 26.3316 18.5796 26.5549 18.7254 26.7333C18.8711 26.9117 19.0741 27.0342 19.2999 27.08C20.2033 27.2646 21.0153 27.7555 21.5984 28.4698C22.1815 29.1841 22.5 30.0779 22.5 31C22.5 31.9221 22.1815 32.8159 21.5984 33.5302C21.0153 34.2445 20.2033 34.7354 19.2999 34.92C19.0741 34.9658 18.8711 35.0883 18.7254 35.2667C18.5796 35.4451 18.5 35.6684 18.5 35.8988V39C18.5 39.2652 18.6054 39.5196 18.7929 39.7071C18.9804 39.8946 19.2348 40 19.5 40H25.5V22ZM29.5 40H43.5C43.7652 40 44.0196 39.8946 44.2071 39.7071C44.3946 39.5196 44.5 39.2652 44.5 39V35.8988C44.5 35.6684 44.4204 35.4451 44.2746 35.2667C44.1289 35.0883 43.9259 34.9658 43.7001 34.92C42.7967 34.7354 41.9847 34.2445 41.4016 33.5302C40.8185 32.8159 40.5 31.9221 40.5 31C40.5 30.0779 40.8185 29.1841 41.4016 28.4698C41.9847 27.7555 42.7967 27.2646 43.7001 27.08C43.9259 27.0342 44.1289 26.9117 44.2746 26.7333C44.4204 26.5549 44.5 26.3316 44.5 26.1012V23C44.5 22.7348 44.3946 22.4804 44.2071 22.2929C44.0196 22.1054 43.7652 22 43.5 22H29.5V40Z" fill="white"/>
<path d="M25.5 22H26.25C26.25 21.5858 25.9142 21.25 25.5 21.25V22ZM18.7929 22.2929L18.2626 21.7626L18.2626 21.7626L18.7929 22.2929ZM18.5 26.1012L19.25 26.1014V26.1012H18.5ZM18.7254 26.7333L19.3061 26.2587L18.7254 26.7333ZM19.2999 27.08L19.45 26.3452L19.4491 26.345L19.2999 27.08ZM21.5984 28.4698L21.0174 28.9441L21.5984 28.4698ZM21.5984 33.5302L21.0174 33.0559L21.0174 33.0559L21.5984 33.5302ZM19.2999 34.92L19.4491 35.655L19.45 35.6548L19.2999 34.92ZM18.7254 35.2667L19.3061 35.7413L18.7254 35.2667ZM18.5 35.8988H19.25L19.25 35.8986L18.5 35.8988ZM18.7929 39.7071L18.2626 40.2374L18.7929 39.7071ZM25.5 40V40.75C25.9142 40.75 26.25 40.4142 26.25 40H25.5ZM29.5 40H28.75C28.75 40.4142 29.0858 40.75 29.5 40.75V40ZM44.5 35.8988L43.75 35.8986V35.8988H44.5ZM44.2746 35.2667L43.6939 35.7413V35.7413L44.2746 35.2667ZM43.7001 34.92L43.55 35.6548L43.5509 35.655L43.7001 34.92ZM41.4016 33.5302L40.8206 34.0045V34.0045L41.4016 33.5302ZM43.7001 27.08L43.5509 26.345L43.55 26.3452L43.7001 27.08ZM44.2746 26.7333L43.6939 26.2587L43.6939 26.2587L44.2746 26.7333ZM44.5 26.1012H43.75V26.1014L44.5 26.1012ZM44.2071 22.2929L44.7374 21.7626V21.7626L44.2071 22.2929ZM29.5 22V21.25C29.0858 21.25 28.75 21.5858 28.75 22H29.5ZM19.5 22.75H25.5V21.25H19.5V22.75ZM19.3232 22.8232C19.3701 22.7763 19.4337 22.75 19.5 22.75V21.25C19.0359 21.25 18.5908 21.4344 18.2626 21.7626L19.3232 22.8232ZM19.25 23C19.25 22.9337 19.2763 22.8701 19.3232 22.8232L18.2626 21.7626C17.9344 22.0908 17.75 22.5359 17.75 23H19.25ZM19.25 26.1012V23H17.75V26.1012H19.25ZM19.3061 26.2587C19.2698 26.2143 19.25 26.1587 19.25 26.1014L17.75 26.1011C17.7499 26.5045 17.8893 26.8955 18.1446 27.2079L19.3061 26.2587ZM19.4491 26.345C19.3929 26.3336 19.3424 26.3031 19.3061 26.2587L18.1446 27.2079C18.3999 27.5203 18.7553 27.7347 19.1507 27.815L19.4491 26.345ZM22.1794 27.9955C21.4869 27.1473 20.5228 26.5643 19.45 26.3452L19.1498 27.8148C19.8838 27.9648 20.5436 28.3637 21.0174 28.9441L22.1794 27.9955ZM23.25 31C23.25 29.9051 22.8718 28.8437 22.1794 27.9955L21.0174 28.9441C21.4912 29.5245 21.75 30.2508 21.75 31H23.25ZM22.1794 34.0045C22.8718 33.1563 23.25 32.0949 23.25 31H21.75C21.75 31.7492 21.4912 32.4755 21.0174 33.0559L22.1794 34.0045ZM19.45 35.6548C20.5228 35.4357 21.4869 34.8527 22.1794 34.0045L21.0174 33.0559C20.5436 33.6363 19.8838 34.0352 19.1498 34.1852L19.45 35.6548ZM19.3061 35.7413C19.3424 35.6969 19.3929 35.6664 19.4491 35.655L19.1507 34.185C18.7553 34.2653 18.3999 34.4797 18.1446 34.7921L19.3061 35.7413ZM19.25 35.8986C19.25 35.8413 19.2698 35.7857 19.3061 35.7413L18.1446 34.7921C17.8893 35.1045 17.7499 35.4955 17.75 35.8989L19.25 35.8986ZM19.25 39V35.8988H17.75V39H19.25ZM19.3232 39.1768C19.2763 39.1299 19.25 39.0663 19.25 39H17.75C17.75 39.4641 17.9344 39.9092 18.2626 40.2374L19.3232 39.1768ZM19.5 39.25C19.4337 39.25 19.3701 39.2237 19.3232 39.1768L18.2626 40.2374C18.5908 40.5656 19.0359 40.75 19.5 40.75V39.25ZM25.5 39.25H19.5V40.75H25.5V39.25ZM26.25 40V22H24.75V40H26.25ZM43.5 39.25H29.5V40.75H43.5V39.25ZM43.6768 39.1768C43.6299 39.2237 43.5663 39.25 43.5 39.25V40.75C43.9641 40.75 44.4092 40.5656 44.7374 40.2374L43.6768 39.1768ZM43.75 39C43.75 39.0663 43.7237 39.1299 43.6768 39.1768L44.7374 40.2374C45.0656 39.9092 45.25 39.4641 45.25 39H43.75ZM43.75 35.8988V39H45.25V35.8988H43.75ZM43.6939 35.7413C43.7302 35.7857 43.75 35.8413 43.75 35.8986L45.25 35.8989C45.2501 35.4955 45.1107 35.1045 44.8554 34.7921L43.6939 35.7413ZM43.5509 35.655C43.6071 35.6664 43.6576 35.6969 43.6939 35.7413L44.8554 34.7921C44.6001 34.4797 44.2447 34.2653 43.8493 34.185L43.5509 35.655ZM40.8206 34.0045C41.5131 34.8527 42.4772 35.4357 43.55 35.6548L43.8502 34.1852C43.1162 34.0352 42.4564 33.6363 41.9826 33.0559L40.8206 34.0045ZM39.75 31C39.75 32.0949 40.1282 33.1563 40.8206 34.0045L41.9826 33.0559C41.5088 32.4755 41.25 31.7492 41.25 31H39.75ZM40.8206 27.9955C40.1282 28.8437 39.75 29.9051 39.75 31H41.25C41.25 30.2508 41.5088 29.5245 41.9826 28.9441L40.8206 27.9955ZM43.55 26.3452C42.4772 26.5644 41.5131 27.1473 40.8206 27.9955L41.9826 28.9441C42.4564 28.3637 43.1162 27.9648 43.8502 27.8148L43.55 26.3452ZM43.6939 26.2587C43.6576 26.3031 43.6071 26.3336 43.5509 26.345L43.8493 27.815C44.2447 27.7348 44.6001 27.5203 44.8554 27.2079L43.6939 26.2587ZM43.75 26.1014C43.75 26.1587 43.7302 26.2143 43.6939 26.2587L44.8554 27.2079C45.1107 26.8955 45.2501 26.5045 45.25 26.1011L43.75 26.1014ZM43.75 23V26.1012H45.25V23H43.75ZM43.6768 22.8232C43.7237 22.8701 43.75 22.9337 43.75 23H45.25C45.25 22.5359 45.0656 22.0908 44.7374 21.7626L43.6768 22.8232ZM43.5 22.75C43.5663 22.75 43.6299 22.7763 43.6768 22.8232L44.7374 21.7626C44.4092 21.4344 43.9641 21.25 43.5 21.25V22.75ZM29.5 22.75H43.5V21.25H29.5V22.75ZM28.75 22V40H30.25V22H28.75Z" fill="white"/>
</svg>
