<svg width="63" height="62" viewBox="0 0 63 62" fill="none" xmlns="http://www.w3.org/2000/svg">
<rect x="0.5" width="62" height="62" rx="31" fill="#990033"/>
<path d="M38.5 26.1962V25.5C38.5 22.365 33.7712 20 27.5 20C21.2288 20 16.5 22.365 16.5 25.5V30.5C16.5 33.1112 19.7812 35.1863 24.5 35.8075V36.5C24.5 39.635 29.2288 42 35.5 42C41.7712 42 46.5 39.635 46.5 36.5V31.5C46.5 28.9125 43.3225 26.835 38.5 26.1962ZM22.5 33.3587C20.0512 32.675 18.5 31.5487 18.5 30.5V28.7413C19.52 29.4637 20.8863 30.0463 22.5 30.4375V33.3587ZM32.5 30.4375C34.1138 30.0463 35.48 29.4637 36.5 28.7413V30.5C36.5 31.5487 34.9487 32.675 32.5 33.3587V30.4375ZM30.5 39.3587C28.0513 38.675 26.5 37.5487 26.5 36.5V35.9788C26.8287 35.9913 27.1613 36 27.5 36C27.985 36 28.4587 35.9837 28.9237 35.9562C29.4403 36.1412 29.9665 36.2981 30.5 36.4263V39.3587ZM30.5 33.7812C29.5068 33.928 28.504 34.0011 27.5 34C26.496 34.0011 25.4932 33.928 24.5 33.7812V30.8075C25.4947 30.9371 26.4969 31.0014 27.5 31C28.5031 31.0014 29.5053 30.9371 30.5 30.8075V33.7812ZM38.5 39.7812C36.5106 40.0729 34.4894 40.0729 32.5 39.7812V36.8C33.4944 36.9337 34.4967 37.0005 35.5 37C36.5031 37.0014 37.5053 36.9371 38.5 36.8075V39.7812ZM44.5 36.5C44.5 37.5487 42.9487 38.675 40.5 39.3587V36.4375C42.1138 36.0462 43.48 35.4637 44.5 34.7412V36.5Z" fill="white"/>
</svg>
