<svg width="63" height="62" viewBox="0 0 63 62" fill="none" xmlns="http://www.w3.org/2000/svg">
<rect x="0.5" width="62" height="62" rx="31" fill="#990033"/>
<path d="M42.5 24H22.5C22.2348 24 21.9804 23.8946 21.7929 23.7071C21.6054 23.5196 21.5 23.2652 21.5 23C21.5 22.7348 21.6054 22.4804 21.7929 22.2929C21.9804 22.1054 22.2348 22 22.5 22H39.5C39.7652 22 40.0196 21.8946 40.2071 21.7071C40.3946 21.5196 40.5 21.2652 40.5 21C40.5 20.7348 40.3946 20.4804 40.2071 20.2929C40.0196 20.1054 39.7652 20 39.5 20H22.5C21.7044 20 20.9413 20.3161 20.3787 20.8787C19.8161 21.4413 19.5 22.2044 19.5 23V39C19.5 39.7956 19.8161 40.5587 20.3787 41.1213C20.9413 41.6839 21.7044 42 22.5 42H42.5C43.0304 42 43.5391 41.7893 43.9142 41.4142C44.2893 41.0391 44.5 40.5304 44.5 40V26C44.5 25.4696 44.2893 24.9609 43.9142 24.5858C43.5391 24.2107 43.0304 24 42.5 24ZM38 34C37.7033 34 37.4133 33.912 37.1666 33.7472C36.92 33.5824 36.7277 33.3481 36.6142 33.074C36.5007 32.7999 36.4709 32.4983 36.5288 32.2074C36.5867 31.9164 36.7296 31.6491 36.9393 31.4393C37.1491 31.2296 37.4164 31.0867 37.7074 31.0288C37.9983 30.9709 38.2999 31.0007 38.574 31.1142C38.8481 31.2277 39.0824 31.42 39.2472 31.6666C39.412 31.9133 39.5 32.2033 39.5 32.5C39.5 32.8978 39.342 33.2794 39.0607 33.5607C38.7794 33.842 38.3978 34 38 34Z" fill="white"/>
</svg>
