<svg width="122" height="16" viewBox="0 0 122 16" fill="none" xmlns="http://www.w3.org/2000/svg">
<path d="M12.0704 13.027H6.30645L4.89845 15.755H0.960449L9.27645 0.31101H13.6324L16.4924 15.755H12.5104L12.0704 13.027ZM11.6304 10.167L10.7284 4.44701L7.78045 10.167H11.6304Z" fill="url(#paint0_linear_4210_644)"/>
<path d="M18.9412 8.01101C19.2052 6.48568 19.7698 5.12901 20.6352 3.94101C21.5152 2.73834 22.6005 1.80701 23.8912 1.14701C25.1818 0.472343 26.5752 0.13501 28.0712 0.13501C29.9045 0.13501 31.3858 0.61901 32.5152 1.58701C33.6592 2.55501 34.3045 3.87501 34.4512 5.54701H30.3152C30.1245 4.91634 29.7725 4.43968 29.2592 4.11701C28.7605 3.77968 28.1445 3.61101 27.4112 3.61101C26.2525 3.61101 25.2478 4.01434 24.3972 4.82101C23.5465 5.61301 23.0038 6.67634 22.7692 8.01101C22.6958 8.42168 22.6592 8.78101 22.6592 9.08901C22.6592 10.1157 22.9452 10.9297 23.5172 11.531C24.0892 12.1323 24.8738 12.433 25.8712 12.433C26.5898 12.433 27.2572 12.2643 27.8732 11.927C28.5038 11.5897 29.0318 11.1057 29.4572 10.475H33.5932C32.8598 12.147 31.7525 13.467 30.2712 14.435C28.7898 15.3883 27.1325 15.865 25.2992 15.865C23.9792 15.865 22.8278 15.6083 21.8452 15.095C20.8625 14.5817 20.1072 13.8557 19.5792 12.917C19.0512 11.9783 18.7872 10.8857 18.7872 9.63901C18.7872 9.08168 18.8385 8.53901 18.9412 8.01101Z" fill="url(#paint1_linear_4210_644)"/>
<path d="M45.049 13.027H39.285L37.877 15.755H33.939L42.255 0.31101H46.611L49.471 15.755H45.489L45.049 13.027ZM44.609 10.167L43.707 4.44701L40.759 10.167H44.609Z" fill="url(#paint2_linear_4210_644)"/>
<path d="M59.6857 0.31101C61.1083 0.31101 62.333 0.567677 63.3597 1.08101C64.401 1.57968 65.193 2.29101 65.7357 3.21501C66.293 4.12434 66.5717 5.19501 66.5717 6.42701C66.5717 6.85234 66.5203 7.38768 66.4177 8.03301C66.1537 9.54368 65.5817 10.8857 64.7017 12.059C63.8363 13.2323 62.729 14.1417 61.3797 14.787C60.045 15.4323 58.571 15.755 56.9577 15.755H51.1717L53.8997 0.31101H59.6857ZM57.2877 12.543C58.7103 12.543 59.891 12.147 60.8297 11.355C61.7683 10.563 62.355 9.45568 62.5897 8.03301C62.663 7.59301 62.6997 7.22634 62.6997 6.93301C62.6997 5.84768 62.3697 5.01168 61.7097 4.42501C61.0497 3.82368 60.111 3.52301 58.8937 3.52301H57.0897L55.5057 12.543H57.2877Z" fill="url(#paint3_linear_4210_644)"/>
<path d="M73.118 3.28101L72.568 6.49301H77.606L77.1 9.33101H72.062L71.446 12.785H77.144L76.616 15.755H67.156L69.884 0.31101H79.344L78.816 3.28101H73.118Z" fill="url(#paint4_linear_4210_644)"/>
<path d="M99.2764 0.31101L96.5484 15.755H92.7864L94.4364 6.49301L89.3324 15.755H86.2964L84.4484 6.44901L82.8204 15.755H79.0584L81.7864 0.31101H86.2304L88.6944 11.003L94.8544 0.31101H99.2764Z" fill="url(#paint5_linear_4210_644)"/>
<path d="M105.744 0.31101L103.016 15.755H99.2537L101.982 0.31101H105.744Z" fill="url(#paint6_linear_4210_644)"/>
<path d="M106.49 8.01101C106.754 6.48568 107.319 5.12901 108.184 3.94101C109.064 2.73834 110.149 1.80701 111.44 1.14701C112.731 0.472343 114.124 0.13501 115.62 0.13501C117.453 0.13501 118.935 0.61901 120.064 1.58701C121.208 2.55501 121.853 3.87501 122 5.54701H117.864C117.673 4.91634 117.321 4.43968 116.808 4.11701C116.309 3.77968 115.693 3.61101 114.96 3.61101C113.801 3.61101 112.797 4.01434 111.946 4.82101C111.095 5.61301 110.553 6.67634 110.318 8.01101C110.245 8.42168 110.208 8.78101 110.208 9.08901C110.208 10.1157 110.494 10.9297 111.066 11.531C111.638 12.1323 112.423 12.433 113.42 12.433C114.139 12.433 114.806 12.2643 115.422 11.927C116.053 11.5897 116.581 11.1057 117.006 10.475H121.142C120.409 12.147 119.301 13.467 117.82 14.435C116.339 15.3883 114.681 15.865 112.848 15.865C111.528 15.865 110.377 15.6083 109.394 15.095C108.411 14.5817 107.656 13.8557 107.128 12.917C106.6 11.9783 106.336 10.8857 106.336 9.63901C106.336 9.08168 106.387 8.53901 106.49 8.01101Z" fill="url(#paint7_linear_4210_644)"/>
<defs>
<linearGradient id="paint0_linear_4210_644" x1="-7.18247" y1="15.7119" x2="106.32" y2="-7.56053" gradientUnits="userSpaceOnUse">
<stop stop-color="#DED7D1"/>
<stop offset="0.480526" stop-color="#FFF2E6"/>
<stop offset="1" stop-color="#DED7D1"/>
</linearGradient>
<linearGradient id="paint1_linear_4210_644" x1="-7.18247" y1="15.7119" x2="106.32" y2="-7.56053" gradientUnits="userSpaceOnUse">
<stop stop-color="#DED7D1"/>
<stop offset="0.480526" stop-color="#FFF2E6"/>
<stop offset="1" stop-color="#DED7D1"/>
</linearGradient>
<linearGradient id="paint2_linear_4210_644" x1="-7.18247" y1="15.7119" x2="106.32" y2="-7.56053" gradientUnits="userSpaceOnUse">
<stop stop-color="#DED7D1"/>
<stop offset="0.480526" stop-color="#FFF2E6"/>
<stop offset="1" stop-color="#DED7D1"/>
</linearGradient>
<linearGradient id="paint3_linear_4210_644" x1="-7.18247" y1="15.7119" x2="106.32" y2="-7.56053" gradientUnits="userSpaceOnUse">
<stop stop-color="#DED7D1"/>
<stop offset="0.480526" stop-color="#FFF2E6"/>
<stop offset="1" stop-color="#DED7D1"/>
</linearGradient>
<linearGradient id="paint4_linear_4210_644" x1="-7.18247" y1="15.7119" x2="106.32" y2="-7.56053" gradientUnits="userSpaceOnUse">
<stop stop-color="#DED7D1"/>
<stop offset="0.480526" stop-color="#FFF2E6"/>
<stop offset="1" stop-color="#DED7D1"/>
</linearGradient>
<linearGradient id="paint5_linear_4210_644" x1="-7.18247" y1="15.7119" x2="106.32" y2="-7.56053" gradientUnits="userSpaceOnUse">
<stop stop-color="#DED7D1"/>
<stop offset="0.480526" stop-color="#FFF2E6"/>
<stop offset="1" stop-color="#DED7D1"/>
</linearGradient>
<linearGradient id="paint6_linear_4210_644" x1="-7.18247" y1="15.7119" x2="106.32" y2="-7.56053" gradientUnits="userSpaceOnUse">
<stop stop-color="#DED7D1"/>
<stop offset="0.480526" stop-color="#FFF2E6"/>
<stop offset="1" stop-color="#DED7D1"/>
</linearGradient>
<linearGradient id="paint7_linear_4210_644" x1="-7.18247" y1="15.7119" x2="106.32" y2="-7.56053" gradientUnits="userSpaceOnUse">
<stop stop-color="#DED7D1"/>
<stop offset="0.480526" stop-color="#FFF2E6"/>
<stop offset="1" stop-color="#DED7D1"/>
</linearGradient>
</defs>
</svg>
