
<svg width="351" height="200" viewBox="0 0 351 200" fill="none" xmlns="http://www.w3.org/2000/svg">
<rect width="351" height="200" fill="#E5E5E5"/>
<g id="Card" filter="url(#filter0_b_515_2649)">
<g clip-path="url(#clip0_515_2649)">
<path d="M0 12C0 5.37258 5.37258 0 12 0H339C345.627 0 351 5.37258 351 12V188C351 194.627 345.627 200 339 200H12C5.37258 200 0 194.627 0 188V12Z" fill="#84776E"/>
<g id="Frame" opacity="0.6">
<path id="Vector" d="M365.702 125.469C365.302 126.162 364.726 126.738 364.032 127.139C363.338 127.539 362.551 127.75 361.75 127.75H252.25C251.449 127.749 250.663 127.538 249.97 127.137C249.277 126.736 248.702 126.16 248.302 125.467C247.902 124.773 247.692 123.987 247.692 123.186C247.692 122.386 247.903 121.599 248.303 120.906C256.989 105.89 270.374 95.1223 285.995 90.018C278.269 85.4182 272.265 78.4092 268.908 70.0673C265.55 61.7254 265.023 52.512 267.409 43.8418C269.794 35.1717 274.959 27.5243 282.112 22.074C289.264 16.6237 298.008 13.6719 307 13.6719C315.992 13.6719 324.736 16.6237 331.888 22.074C339.041 27.5243 344.206 35.1717 346.591 43.8418C348.977 52.512 348.45 61.7254 345.092 70.0673C341.735 78.4092 335.731 85.4182 328.005 90.018C343.625 95.1223 357.011 105.89 365.697 120.906C366.098 121.599 366.31 122.386 366.311 123.187C366.312 123.988 366.102 124.775 365.702 125.469Z" fill="url(#paint0_linear_515_2649)"/>
</g>
<path id="Ellipse 60" opacity="0.4" d="M268.895 31.9923C243.193 -2.74904 204.742 -25.8572 162.002 -32.2488C119.262 -38.6403 75.7336 -27.7917 40.9923 -2.08937C6.25098 23.6129 -16.8572 62.0635 -23.2488 104.804C-29.6403 147.544 -18.7917 191.072 6.91064 225.814L72.4068 177.358C59.5556 159.988 54.1313 138.223 57.3271 116.853C60.5229 95.4832 72.077 76.2579 89.4476 63.4068C106.818 50.5556 128.583 45.1313 149.953 48.3271C171.323 51.5228 190.548 63.0769 203.399 80.4476L268.895 31.9923Z" fill="url(#paint1_linear_515_2649)"/>
<path id="Ellipse 61" opacity="0.4" d="M67.9999 176.584C80.5425 219.884 109.773 256.429 149.26 278.178C188.747 299.927 235.256 305.1 278.557 292.557C321.858 280.014 358.402 250.784 380.152 211.297C401.901 171.81 407.073 125.3 394.531 81.9998L312.898 105.646C319.169 127.296 316.583 150.551 305.708 170.295C294.834 190.038 276.562 204.653 254.911 210.924C233.261 217.196 210.006 214.61 190.262 203.735C170.519 192.86 155.904 174.588 149.633 152.938L67.9999 176.584Z" fill="url(#paint2_linear_515_2649)"/>
<g id="CardHolder">
<g id="Frame 1321317081">
<g id="CardWord">
<g id="Staff">
<path d="M269.421 180.909C267.749 180.909 266.385 180.549 265.329 179.831C264.287 179.097 263.767 178.063 263.767 176.729C263.767 176.597 263.781 176.399 263.811 176.135H267.727C267.683 176.692 267.815 177.132 268.123 177.455C268.431 177.777 268.9 177.939 269.531 177.939C270.103 177.939 270.55 177.814 270.873 177.565C271.21 177.315 271.379 176.963 271.379 176.509C271.379 176.039 271.166 175.658 270.741 175.365C270.33 175.071 269.685 174.741 268.805 174.375C267.954 174.023 267.257 173.693 266.715 173.385C266.187 173.062 265.725 172.629 265.329 172.087C264.933 171.544 264.735 170.862 264.735 170.041C264.72 169.029 264.969 168.149 265.483 167.401C265.996 166.653 266.707 166.081 267.617 165.685C268.526 165.289 269.567 165.091 270.741 165.091C271.797 165.091 272.735 165.259 273.557 165.597C274.378 165.919 275.016 166.396 275.471 167.027C275.925 167.643 276.153 168.376 276.153 169.227C276.153 169.447 276.145 169.608 276.131 169.711H272.127C272.141 169.652 272.149 169.564 272.149 169.447C272.149 169.036 272.002 168.706 271.709 168.457C271.43 168.193 271.041 168.061 270.543 168.061C270.015 168.061 269.582 168.193 269.245 168.457C268.922 168.706 268.761 169.051 268.761 169.491C268.761 169.931 268.966 170.305 269.377 170.613C269.787 170.906 270.425 171.251 271.291 171.647C272.156 172.043 272.86 172.409 273.403 172.747C273.96 173.084 274.437 173.539 274.833 174.111C275.229 174.668 275.427 175.357 275.427 176.179C275.427 177.088 275.185 177.902 274.701 178.621C274.217 179.339 273.52 179.904 272.611 180.315C271.701 180.711 270.638 180.909 269.421 180.909Z" fill="url(#paint3_linear_515_2649)"/>
<path d="M290.806 165.311L290.3 168.281H286.186L283.986 180.755H280.224L282.424 168.281H278.332L278.86 165.311H290.806Z" fill="url(#paint4_linear_515_2649)"/>
<path d="M300.064 178.027H294.3L292.892 180.755H288.954L297.27 165.311H301.626L304.486 180.755H300.504L300.064 178.027ZM299.624 175.167L298.722 169.447L295.774 175.167H299.624Z" fill="url(#paint5_linear_515_2649)"/>
<path d="M318.969 165.311L318.441 168.281H312.149L311.577 171.603H316.285L315.757 174.463H311.049L309.949 180.755H306.187L308.915 165.311H318.969Z" fill="url(#paint6_linear_515_2649)"/>
<path d="M331 165.311L330.472 168.281H324.18L323.608 171.603H328.316L327.788 174.463H323.08L321.98 180.755H318.218L320.946 165.311H331Z" fill="url(#paint7_linear_515_2649)"/>
</g>
</g>
</g>
</g>
</g>
</g>
<defs>
<filter id="filter0_b_515_2649" x="-100" y="-100" width="551" height="400" filterUnits="userSpaceOnUse" color-interpolation-filters="sRGB">
<feFlood flood-opacity="0" result="BackgroundImageFix"/>
<feGaussianBlur in="BackgroundImageFix" stdDeviation="50"/>
<feComposite in2="SourceAlpha" operator="in" result="effect1_backgroundBlur_515_2649"/>
<feBlend mode="normal" in="SourceGraphic" in2="effect1_backgroundBlur_515_2649" result="shape"/>
</filter>
<linearGradient id="paint0_linear_515_2649" x1="340" y1="10" x2="307" y2="124.922" gradientUnits="userSpaceOnUse">
<stop stop-color="white"/>
<stop offset="1" stop-color="white" stop-opacity="0"/>
</linearGradient>
<linearGradient id="paint1_linear_515_2649" x1="40.9923" y1="-2.08936" x2="137.903" y2="128.903" gradientUnits="userSpaceOnUse">
<stop stop-color="#FCB579" stop-opacity="0.870588"/>
<stop offset="1" stop-color="#DED7D1" stop-opacity="0"/>
</linearGradient>
<linearGradient id="paint2_linear_515_2649" x1="278.557" y1="292.557" x2="231.265" y2="129.292" gradientUnits="userSpaceOnUse">
<stop stop-color="#FCB579" stop-opacity="0.870588"/>
<stop offset="1" stop-color="#DED7D1" stop-opacity="0"/>
</linearGradient>
<linearGradient id="paint3_linear_515_2649" x1="259.243" y1="180.755" x2="324.109" y2="173.408" gradientUnits="userSpaceOnUse">
<stop stop-color="white" stop-opacity="0.7"/>
<stop offset="0.480526" stop-color="white"/>
<stop offset="1" stop-color="white" stop-opacity="0.7"/>
</linearGradient>
<linearGradient id="paint4_linear_515_2649" x1="259.243" y1="180.755" x2="324.109" y2="173.408" gradientUnits="userSpaceOnUse">
<stop stop-color="white" stop-opacity="0.7"/>
<stop offset="0.480526" stop-color="white"/>
<stop offset="1" stop-color="white" stop-opacity="0.7"/>
</linearGradient>
<linearGradient id="paint5_linear_515_2649" x1="259.243" y1="180.755" x2="324.109" y2="173.408" gradientUnits="userSpaceOnUse">
<stop stop-color="white" stop-opacity="0.7"/>
<stop offset="0.480526" stop-color="white"/>
<stop offset="1" stop-color="white" stop-opacity="0.7"/>
</linearGradient>
<linearGradient id="paint6_linear_515_2649" x1="259.243" y1="180.755" x2="324.109" y2="173.408" gradientUnits="userSpaceOnUse">
<stop stop-color="white" stop-opacity="0.7"/>
<stop offset="0.480526" stop-color="white"/>
<stop offset="1" stop-color="white" stop-opacity="0.7"/>
</linearGradient>
<linearGradient id="paint7_linear_515_2649" x1="259.243" y1="180.755" x2="324.109" y2="173.408" gradientUnits="userSpaceOnUse">
<stop stop-color="white" stop-opacity="0.7"/>
<stop offset="0.480526" stop-color="white"/>
<stop offset="1" stop-color="white" stop-opacity="0.7"/>
</linearGradient>
<clipPath id="clip0_515_2649">
<path d="M0 12C0 5.37258 5.37258 0 12 0H339C345.627 0 351 5.37258 351 12V188C351 194.627 345.627 200 339 200H12C5.37258 200 0 194.627 0 188V12Z" fill="white"/>
</clipPath>
</defs>
</svg>
