
<svg width="351" height="200" viewBox="0 0 351 200" fill="none" xmlns="http://www.w3.org/2000/svg">
<rect width="351" height="200" fill="#E5E5E5"/>
<g id="Card" filter="url(#filter0_b_515_2649)">
<g clip-path="url(#clip0_515_2649)">
<path d="M0 12C0 5.37258 5.37258 0 12 0H339C345.627 0 351 5.37258 351 12V188C351 194.627 345.627 200 339 200H12C5.37258 200 0 194.627 0 188V12Z" fill="#E4893B"/>
<g id="Frame" opacity="0.6">
<path id="Vector" d="M365.702 125.469C365.302 126.162 364.726 126.738 364.032 127.139C363.338 127.539 362.551 127.75 361.75 127.75H252.25C251.45 127.749 250.664 127.538 249.971 127.137C249.278 126.736 248.702 126.16 248.302 125.467C247.903 124.773 247.692 123.987 247.692 123.186C247.693 122.386 247.903 121.599 248.304 120.906C256.99 105.89 270.375 95.1223 285.996 90.018C278.269 85.4182 272.266 78.4092 268.908 70.0673C265.55 61.7254 265.023 52.512 267.409 43.8418C269.794 35.1717 274.96 27.5243 282.112 22.074C289.264 16.6237 298.008 13.6719 307 13.6719C315.993 13.6719 324.736 16.6237 331.889 22.074C339.041 27.5243 344.206 35.1717 346.592 43.8418C348.977 52.512 348.45 61.7254 345.093 70.0673C341.735 78.4092 335.732 85.4182 328.005 90.018C343.626 95.1223 357.011 105.89 365.697 120.906C366.098 121.599 366.31 122.386 366.311 123.187C366.312 123.988 366.102 124.775 365.702 125.469Z" fill="url(#paint0_linear_515_2649)"/>
</g>
<path id="Ellipse 60" opacity="0.5" d="M268.895 31.9923C243.193 -2.74904 204.742 -25.8572 162.002 -32.2488C119.262 -38.6403 75.7336 -27.7917 40.9923 -2.08937C6.25098 23.6129 -16.8572 62.0635 -23.2488 104.804C-29.6403 147.544 -18.7917 191.072 6.91064 225.814L72.4068 177.358C59.5556 159.988 54.1313 138.223 57.3271 116.853C60.5229 95.4832 72.077 76.2579 89.4476 63.4068C106.818 50.5556 128.583 45.1313 149.953 48.3271C171.323 51.5228 190.548 63.0769 203.399 80.4476L268.895 31.9923Z" fill="url(#paint1_linear_515_2649)"/>
<path id="Ellipse 61" opacity="0.5" d="M68.0001 176.584C80.5427 219.884 109.773 256.429 149.26 278.178C188.747 299.927 235.257 305.1 278.557 292.557C321.858 280.014 358.403 250.784 380.152 211.297C401.901 171.81 407.073 125.3 394.531 81.9998L312.898 105.646C319.169 127.296 316.583 150.551 305.709 170.295C294.834 190.038 276.562 204.653 254.911 210.924C233.261 217.196 210.006 214.61 190.263 203.735C170.519 192.86 155.904 174.588 149.633 152.938L68.0001 176.584Z" fill="url(#paint2_linear_515_2649)"/>
<g id="CardHolder">
<g id="Frame 1321317081">
<g id="CardWord">
<g id="contracted staff">
<path d="M180.524 157.284C180.788 155.758 181.353 154.402 182.218 153.214C183.098 152.011 184.183 151.08 185.474 150.42C186.765 149.745 188.158 149.408 189.654 149.408C191.487 149.408 192.969 149.892 194.098 150.86C195.242 151.828 195.887 153.148 196.034 154.82H191.898C191.707 154.189 191.355 153.712 190.842 153.39C190.343 153.052 189.727 152.884 188.994 152.884C187.835 152.884 186.831 153.287 185.98 154.094C185.129 154.886 184.587 155.949 184.352 157.284C184.279 157.694 184.242 158.054 184.242 158.362C184.242 159.388 184.528 160.202 185.1 160.804C185.672 161.405 186.457 161.706 187.454 161.706C188.173 161.706 188.84 161.537 189.456 161.2C190.087 160.862 190.615 160.378 191.04 159.748H195.176C194.443 161.42 193.335 162.74 191.854 163.708C190.373 164.661 188.715 165.138 186.882 165.138C185.562 165.138 184.411 164.881 183.428 164.368C182.445 163.854 181.69 163.128 181.162 162.19C180.634 161.251 180.37 160.158 180.37 158.912C180.37 158.354 180.421 157.812 180.524 157.284Z" fill="url(#paint3_linear_515_2649)"/>
<path d="M203.882 165.182C202.576 165.182 201.425 164.91 200.428 164.368C199.445 163.825 198.682 163.062 198.14 162.08C197.597 161.097 197.326 159.968 197.326 158.692C197.326 156.888 197.714 155.282 198.492 153.874C199.269 152.451 200.347 151.344 201.726 150.552C203.119 149.76 204.696 149.364 206.456 149.364C207.776 149.364 208.934 149.635 209.932 150.178C210.929 150.706 211.699 151.461 212.242 152.444C212.784 153.412 213.056 154.526 213.056 155.788C213.056 157.592 212.667 159.212 211.89 160.65C211.112 162.072 210.027 163.187 208.634 163.994C207.24 164.786 205.656 165.182 203.882 165.182ZM204.454 161.706C205.422 161.706 206.272 161.456 207.006 160.958C207.739 160.459 208.304 159.792 208.7 158.956C209.11 158.105 209.316 157.188 209.316 156.206C209.316 155.15 209.022 154.321 208.436 153.72C207.849 153.118 207.028 152.818 205.972 152.818C205.004 152.818 204.146 153.067 203.398 153.566C202.664 154.064 202.092 154.732 201.682 155.568C201.286 156.389 201.088 157.298 201.088 158.296C201.088 159.352 201.381 160.188 201.968 160.804C202.554 161.405 203.383 161.706 204.454 161.706Z" fill="url(#paint4_linear_515_2649)"/>
<path d="M227.645 165.028H223.883L219.285 155.502L217.591 165.028H213.829L216.557 149.584H220.319L224.917 159.154L226.611 149.584H230.373L227.645 165.028Z" fill="url(#paint5_linear_515_2649)"/>
<path d="M244.21 149.584L243.704 152.554H239.59L237.39 165.028H233.628L235.828 152.554H231.736L232.264 149.584H244.21Z" fill="url(#paint6_linear_515_2649)"/>
<path d="M252.412 149.584C254.01 149.584 255.228 149.95 256.064 150.684C256.9 151.402 257.318 152.341 257.318 153.5C257.318 153.837 257.288 154.152 257.23 154.446C257.054 155.472 256.606 156.389 255.888 157.196C255.169 158.002 254.208 158.574 253.006 158.912L255.492 165.028H251.246L249.068 159.198H248.166L247.132 165.028H243.37L246.098 149.584H252.412ZM253.38 154.6C253.409 154.365 253.424 154.211 253.424 154.138C253.424 153.668 253.27 153.309 252.962 153.06C252.668 152.796 252.228 152.664 251.642 152.664H249.31L248.628 156.536H250.96C251.649 156.536 252.192 156.367 252.588 156.03C252.998 155.692 253.262 155.216 253.38 154.6Z" fill="url(#paint7_linear_515_2649)"/>
<path d="M267.819 162.3H262.055L260.647 165.028H256.709L265.025 149.584H269.381L272.241 165.028H268.259L267.819 162.3ZM267.379 159.44L266.477 153.72L263.529 159.44H267.379Z" fill="url(#paint8_linear_515_2649)"/>
<path d="M274.69 157.284C274.954 155.758 275.519 154.402 276.384 153.214C277.264 152.011 278.349 151.08 279.64 150.42C280.931 149.745 282.324 149.408 283.82 149.408C285.653 149.408 287.135 149.892 288.264 150.86C289.408 151.828 290.053 153.148 290.2 154.82H286.064C285.873 154.189 285.521 153.712 285.008 153.39C284.509 153.052 283.893 152.884 283.16 152.884C282.001 152.884 280.997 153.287 280.146 154.094C279.295 154.886 278.753 155.949 278.518 157.284C278.445 157.694 278.408 158.054 278.408 158.362C278.408 159.388 278.694 160.202 279.266 160.804C279.838 161.405 280.623 161.706 281.62 161.706C282.339 161.706 283.006 161.537 283.622 161.2C284.253 160.862 284.781 160.378 285.206 159.748H289.342C288.609 161.42 287.501 162.74 286.02 163.708C284.539 164.661 282.881 165.138 281.048 165.138C279.728 165.138 278.577 164.881 277.594 164.368C276.611 163.854 275.856 163.128 275.328 162.19C274.8 161.251 274.536 160.158 274.536 158.912C274.536 158.354 274.587 157.812 274.69 157.284Z" fill="url(#paint9_linear_515_2649)"/>
<path d="M304.538 149.584L304.032 152.554H299.918L297.718 165.028H293.956L296.156 152.554H292.064L292.592 149.584H304.538Z" fill="url(#paint10_linear_515_2649)"/>
<path d="M309.66 152.554L309.11 155.766H314.148L313.642 158.604H308.604L307.988 162.058H313.686L313.158 165.028H303.698L306.426 149.584H315.886L315.358 152.554H309.66Z" fill="url(#paint11_linear_515_2649)"/>
<path d="M324.114 149.584C325.537 149.584 326.761 149.84 327.788 150.354C328.829 150.852 329.621 151.564 330.164 152.488C330.721 153.397 331 154.468 331 155.7C331 156.125 330.949 156.66 330.846 157.306C330.582 158.816 330.01 160.158 329.13 161.332C328.265 162.505 327.157 163.414 325.808 164.06C324.473 164.705 322.999 165.028 321.386 165.028H315.6L318.328 149.584H324.114ZM321.716 161.816C323.139 161.816 324.319 161.42 325.258 160.628C326.197 159.836 326.783 158.728 327.018 157.306C327.091 156.866 327.128 156.499 327.128 156.206C327.128 155.12 326.798 154.284 326.138 153.698C325.478 153.096 324.539 152.796 323.322 152.796H321.518L319.934 161.816H321.716Z" fill="url(#paint12_linear_515_2649)"/>
<path d="M268.585 184C266.913 184 265.549 183.64 264.493 182.922C263.451 182.188 262.931 181.154 262.931 179.82C262.931 179.688 262.945 179.49 262.975 179.226H266.891C266.847 179.783 266.979 180.223 267.287 180.546C267.595 180.868 268.064 181.03 268.695 181.03C269.267 181.03 269.714 180.905 270.037 180.656C270.374 180.406 270.543 180.054 270.543 179.6C270.543 179.13 270.33 178.749 269.905 178.456C269.494 178.162 268.849 177.832 267.969 177.466C267.118 177.114 266.421 176.784 265.879 176.476C265.351 176.153 264.889 175.72 264.493 175.178C264.097 174.635 263.899 173.953 263.899 173.132C263.884 172.12 264.133 171.24 264.647 170.492C265.16 169.744 265.871 169.172 266.781 168.776C267.69 168.38 268.731 168.182 269.905 168.182C270.961 168.182 271.899 168.35 272.721 168.688C273.542 169.01 274.18 169.487 274.635 170.118C275.089 170.734 275.317 171.467 275.317 172.318C275.317 172.538 275.309 172.699 275.295 172.802H271.291C271.305 172.743 271.313 172.655 271.313 172.538C271.313 172.127 271.166 171.797 270.873 171.548C270.594 171.284 270.205 171.152 269.707 171.152C269.179 171.152 268.746 171.284 268.409 171.548C268.086 171.797 267.925 172.142 267.925 172.582C267.925 173.022 268.13 173.396 268.541 173.704C268.951 173.997 269.589 174.342 270.455 174.738C271.32 175.134 272.024 175.5 272.567 175.838C273.124 176.175 273.601 176.63 273.997 177.202C274.393 177.759 274.591 178.448 274.591 179.27C274.591 180.179 274.349 180.993 273.865 181.712C273.381 182.43 272.684 182.995 271.775 183.406C270.865 183.802 269.802 184 268.585 184Z" fill="url(#paint13_linear_515_2649)"/>
<path d="M289.97 168.402L289.464 171.372H285.35L283.15 183.846H279.388L281.588 171.372H277.496L278.024 168.402H289.97Z" fill="url(#paint14_linear_515_2649)"/>
<path d="M299.228 181.118H293.464L292.056 183.846H288.118L296.434 168.402H300.79L303.65 183.846H299.668L299.228 181.118ZM298.788 178.258L297.886 172.538L294.938 178.258H298.788Z" fill="url(#paint15_linear_515_2649)"/>
<path d="M318.133 168.402L317.605 171.372H311.313L310.741 174.694H315.449L314.921 177.554H310.213L309.113 183.846H305.351L308.079 168.402H318.133Z" fill="url(#paint16_linear_515_2649)"/>
<path d="M330.164 168.402L329.636 171.372H323.344L322.772 174.694H327.48L326.952 177.554H322.244L321.144 183.846H317.382L320.11 168.402H330.164Z" fill="url(#paint17_linear_515_2649)"/>
</g>
<!--<g id="parent">
<path d="M258.034 170.25C257.887 171.144 257.543 171.966 257 172.714C256.457 173.447 255.717 174.041 254.778 174.496C253.854 174.95 252.761 175.178 251.5 175.178H249.168L248.178 180.722H244.416L247.144 165.278H253.238C254.851 165.278 256.069 165.637 256.89 166.356C257.711 167.06 258.122 168.02 258.122 169.238C258.122 169.604 258.093 169.942 258.034 170.25ZM251.72 172.23C253.128 172.23 253.957 171.57 254.206 170.25C254.235 170.015 254.25 169.846 254.25 169.744C254.25 169.274 254.096 168.915 253.788 168.666C253.495 168.402 253.04 168.27 252.424 168.27H250.378L249.696 172.23H251.72Z" fill="url(#paint3_linear_515_2649)"/>
<path d="M268.243 177.994H262.479L261.071 180.722H257.133L265.449 165.278H269.805L272.665 180.722H268.683L268.243 177.994ZM267.803 175.134L266.901 169.414L263.953 175.134H267.803Z" fill="url(#paint4_linear_515_2649)"/>
<path d="M283.407 165.278C285.006 165.278 286.223 165.644 287.059 166.378C287.895 167.096 288.313 168.035 288.313 169.194C288.313 169.531 288.284 169.846 288.225 170.14C288.049 171.166 287.602 172.083 286.883 172.89C286.165 173.696 285.204 174.268 284.001 174.606L286.487 180.722H282.241L280.063 174.892H279.161L278.127 180.722H274.365L277.093 165.278H283.407ZM284.375 170.294C284.405 170.059 284.419 169.905 284.419 169.832C284.419 169.362 284.265 169.003 283.957 168.754C283.664 168.49 283.224 168.358 282.637 168.358H280.305L279.623 172.23H281.955C282.645 172.23 283.187 172.061 283.583 171.724C283.994 171.386 284.258 170.91 284.375 170.294Z" fill="url(#paint5_linear_515_2649)"/>
<path d="M294.679 168.248L294.129 171.46H299.167L298.661 174.298H293.623L293.007 177.752H298.705L298.177 180.722H288.717L291.445 165.278H300.905L300.377 168.248H294.679Z" fill="url(#paint6_linear_515_2649)"/>
<path d="M314.435 180.722H310.673L306.075 171.196L304.381 180.722H300.619L303.347 165.278H307.109L311.707 174.848L313.401 165.278H317.163L314.435 180.722Z" fill="url(#paint7_linear_515_2649)"/>
<path d="M331 165.278L330.494 168.248H326.38L324.18 180.722H320.418L322.618 168.248H318.526L319.054 165.278H331Z" fill="url(#paint8_linear_515_2649)"/>
</g>-->
</g>
</g>
</g>
</g>
</g>
<defs>
<filter id="filter0_b_515_2649" x="-100" y="-100" width="551" height="400" filterUnits="userSpaceOnUse" color-interpolation-filters="sRGB">
<feFlood flood-opacity="0" result="BackgroundImageFix"/>
<feGaussianBlur in="BackgroundImageFix" stdDeviation="50"/>
<feComposite in2="SourceAlpha" operator="in" result="effect1_backgroundBlur_515_2649"/>
<feBlend mode="normal" in="SourceGraphic" in2="effect1_backgroundBlur_515_2649" result="shape"/>
</filter>
<linearGradient id="paint0_linear_515_2649" x1="340" y1="10" x2="307" y2="124.922" gradientUnits="userSpaceOnUse">
<stop stop-color="white"/>
<stop offset="1" stop-color="white" stop-opacity="0"/>
</linearGradient>
<linearGradient id="paint1_linear_515_2649" x1="40.9923" y1="-2.08936" x2="137.903" y2="128.903" gradientUnits="userSpaceOnUse">
<stop stop-color="#FBD20A"/>
<stop offset="1" stop-color="#FBD20A" stop-opacity="0"/>
</linearGradient>
<linearGradient id="paint2_linear_515_2649" x1="278.557" y1="292.557" x2="231.265" y2="129.292" gradientUnits="userSpaceOnUse">
<stop stop-color="#FBD20A"/>
<stop offset="1" stop-color="#FBD20A" stop-opacity="0"/>
</linearGradient>
<linearGradient id="paint3_linear_515_2649" x1="170.236" y1="183.663" x2="315.475" y2="166.832" gradientUnits="userSpaceOnUse">
<stop stop-color="white" stop-opacity="0.7"/>
<stop offset="0.480526" stop-color="white"/>
<stop offset="1" stop-color="white" stop-opacity="0.7"/>
</linearGradient>
<linearGradient id="paint4_linear_515_2649" x1="170.236" y1="183.663" x2="315.475" y2="166.832" gradientUnits="userSpaceOnUse">
<stop stop-color="white" stop-opacity="0.7"/>
<stop offset="0.480526" stop-color="white"/>
<stop offset="1" stop-color="white" stop-opacity="0.7"/>
</linearGradient>
<linearGradient id="paint5_linear_515_2649" x1="170.236" y1="183.663" x2="315.475" y2="166.832" gradientUnits="userSpaceOnUse">
<stop stop-color="white" stop-opacity="0.7"/>
<stop offset="0.480526" stop-color="white"/>
<stop offset="1" stop-color="white" stop-opacity="0.7"/>
</linearGradient>
<linearGradient id="paint6_linear_515_2649" x1="170.236" y1="183.663" x2="315.475" y2="166.832" gradientUnits="userSpaceOnUse">
<stop stop-color="white" stop-opacity="0.7"/>
<stop offset="0.480526" stop-color="white"/>
<stop offset="1" stop-color="white" stop-opacity="0.7"/>
</linearGradient>
<linearGradient id="paint7_linear_515_2649" x1="170.236" y1="183.663" x2="315.475" y2="166.832" gradientUnits="userSpaceOnUse">
<stop stop-color="white" stop-opacity="0.7"/>
<stop offset="0.480526" stop-color="white"/>
<stop offset="1" stop-color="white" stop-opacity="0.7"/>
</linearGradient>
<linearGradient id="paint8_linear_515_2649" x1="170.236" y1="183.663" x2="315.475" y2="166.832" gradientUnits="userSpaceOnUse">
<stop stop-color="white" stop-opacity="0.7"/>
<stop offset="0.480526" stop-color="white"/>
<stop offset="1" stop-color="white" stop-opacity="0.7"/>
</linearGradient>
<linearGradient id="paint9_linear_515_2649" x1="170.236" y1="183.663" x2="315.475" y2="166.832" gradientUnits="userSpaceOnUse">
<stop stop-color="white" stop-opacity="0.7"/>
<stop offset="0.480526" stop-color="white"/>
<stop offset="1" stop-color="white" stop-opacity="0.7"/>
</linearGradient>
<linearGradient id="paint10_linear_515_2649" x1="170.236" y1="183.663" x2="315.475" y2="166.832" gradientUnits="userSpaceOnUse">
<stop stop-color="white" stop-opacity="0.7"/>
<stop offset="0.480526" stop-color="white"/>
<stop offset="1" stop-color="white" stop-opacity="0.7"/>
</linearGradient>
<linearGradient id="paint11_linear_515_2649" x1="170.236" y1="183.663" x2="315.475" y2="166.832" gradientUnits="userSpaceOnUse">
<stop stop-color="white" stop-opacity="0.7"/>
<stop offset="0.480526" stop-color="white"/>
<stop offset="1" stop-color="white" stop-opacity="0.7"/>
</linearGradient>
<linearGradient id="paint12_linear_515_2649" x1="170.236" y1="183.663" x2="315.475" y2="166.832" gradientUnits="userSpaceOnUse">
<stop stop-color="white" stop-opacity="0.7"/>
<stop offset="0.480526" stop-color="white"/>
<stop offset="1" stop-color="white" stop-opacity="0.7"/>
</linearGradient>
<linearGradient id="paint13_linear_515_2649" x1="170.236" y1="183.663" x2="315.475" y2="166.832" gradientUnits="userSpaceOnUse">
<stop stop-color="white" stop-opacity="0.7"/>
<stop offset="0.480526" stop-color="white"/>
<stop offset="1" stop-color="white" stop-opacity="0.7"/>
</linearGradient>
<linearGradient id="paint14_linear_515_2649" x1="170.236" y1="183.663" x2="315.475" y2="166.832" gradientUnits="userSpaceOnUse">
<stop stop-color="white" stop-opacity="0.7"/>
<stop offset="0.480526" stop-color="white"/>
<stop offset="1" stop-color="white" stop-opacity="0.7"/>
</linearGradient>
<linearGradient id="paint15_linear_515_2649" x1="170.236" y1="183.663" x2="315.475" y2="166.832" gradientUnits="userSpaceOnUse">
<stop stop-color="white" stop-opacity="0.7"/>
<stop offset="0.480526" stop-color="white"/>
<stop offset="1" stop-color="white" stop-opacity="0.7"/>
</linearGradient>
<linearGradient id="paint16_linear_515_2649" x1="170.236" y1="183.663" x2="315.475" y2="166.832" gradientUnits="userSpaceOnUse">
<stop stop-color="white" stop-opacity="0.7"/>
<stop offset="0.480526" stop-color="white"/>
<stop offset="1" stop-color="white" stop-opacity="0.7"/>
</linearGradient>
<linearGradient id="paint17_linear_515_2649" x1="170.236" y1="183.663" x2="315.475" y2="166.832" gradientUnits="userSpaceOnUse">
<stop stop-color="white" stop-opacity="0.7"/>
<stop offset="0.480526" stop-color="white"/>
<stop offset="1" stop-color="white" stop-opacity="0.7"/>
</linearGradient>








<clipPath id="clip0_515_2649">
<path d="M0 12C0 5.37258 5.37258 0 12 0H339C345.627 0 351 5.37258 351 12V188C351 194.627 345.627 200 339 200H12C5.37258 200 0 194.627 0 188V12Z" fill="white"/>
</clipPath>
</defs>
</svg>
