<svg xmlns="http://www.w3.org/2000/svg" width="351" height="200" viewBox="0 0 351 200" fill="none">
<g filter="url(#filter0_b_5010_8022)">
<g clip-path="url(#clip0_5010_8022)">
<path d="M0 12C0 5.37258 5.37258 0 12 0H339C345.627 0 351 5.37258 351 12V188C351 194.627 345.627 200 339 200H12C5.37258 200 0 194.627 0 188V12Z" fill="black" fill-opacity="0.87"/>
<g opacity="0.6">
<path d="M365.702 125.469C365.302 126.162 364.726 126.738 364.032 127.139C363.338 127.539 362.551 127.75 361.75 127.75H252.25C251.449 127.749 250.663 127.538 249.97 127.137C249.277 126.736 248.702 126.16 248.302 125.467C247.902 124.773 247.692 123.987 247.692 123.186C247.692 122.386 247.903 121.599 248.303 120.906C256.989 105.89 270.374 95.1223 285.995 90.018C278.269 85.4182 272.265 78.4092 268.908 70.0673C265.55 61.7254 265.023 52.512 267.409 43.8418C269.794 35.1717 274.959 27.5243 282.112 22.074C289.264 16.6237 298.008 13.6719 307 13.6719C315.992 13.6719 324.736 16.6237 331.888 22.074C339.041 27.5243 344.206 35.1717 346.591 43.8418C348.977 52.512 348.45 61.7254 345.092 70.0673C341.735 78.4092 335.731 85.4182 328.005 90.018C343.625 95.1223 357.011 105.89 365.697 120.906C366.098 121.599 366.31 122.386 366.311 123.187C366.312 123.988 366.102 124.775 365.702 125.469Z" fill="url(#paint0_linear_5010_8022)"/>
</g>
<path opacity="0.4" d="M268.895 31.9923C243.193 -2.74904 204.742 -25.8572 162.002 -32.2488C119.262 -38.6403 75.7336 -27.7917 40.9923 -2.08937C6.25098 23.6129 -16.8572 62.0635 -23.2488 104.804C-29.6403 147.544 -18.7917 191.072 6.91064 225.814L72.4068 177.358C59.5556 159.988 54.1313 138.223 57.3271 116.853C60.5229 95.4832 72.077 76.2579 89.4476 63.4068C106.818 50.5556 128.583 45.1313 149.953 48.3271C171.323 51.5228 190.548 63.0769 203.399 80.4476L268.895 31.9923Z" fill="url(#paint1_linear_5010_8022)"/>
<path opacity="0.4" d="M67.9999 176.584C80.5425 219.885 109.773 256.429 149.26 278.178C188.747 299.928 235.256 305.1 278.557 292.557C321.858 280.015 358.402 250.785 380.152 211.298C401.901 171.81 407.073 125.301 394.531 82.0001L312.898 105.646C319.169 127.296 316.583 150.551 305.708 170.295C294.834 190.038 276.562 204.653 254.911 210.925C233.261 217.196 210.006 214.61 190.262 203.735C170.519 192.861 155.904 174.588 149.633 152.938L67.9999 176.584Z" fill="url(#paint2_linear_5010_8022)"/>
</g>
</g>
<defs>
<filter id="filter0_b_5010_8022" x="-100" y="-100" width="551" height="400" filterUnits="userSpaceOnUse" color-interpolation-filters="sRGB">
<feFlood flood-opacity="0" result="BackgroundImageFix"/>
<feGaussianBlur in="BackgroundImageFix" stdDeviation="50"/>
<feComposite in2="SourceAlpha" operator="in" result="effect1_backgroundBlur_5010_8022"/>
<feBlend mode="normal" in="SourceGraphic" in2="effect1_backgroundBlur_5010_8022" result="shape"/>
</filter>
<linearGradient id="paint0_linear_5010_8022" x1="340" y1="10" x2="307" y2="124.922" gradientUnits="userSpaceOnUse">
<stop stop-color="white"/>
<stop offset="1" stop-color="white" stop-opacity="0"/>
</linearGradient>
<linearGradient id="paint1_linear_5010_8022" x1="40.9923" y1="-2.08936" x2="137.903" y2="128.903" gradientUnits="userSpaceOnUse">
<stop stop-color="#757575" stop-opacity="0.870588"/>
<stop offset="1" stop-color="#757575" stop-opacity="0"/>
</linearGradient>
<linearGradient id="paint2_linear_5010_8022" x1="278.557" y1="292.557" x2="231.265" y2="129.292" gradientUnits="userSpaceOnUse">
<stop stop-color="#757575" stop-opacity="0.870588"/>
<stop offset="1" stop-color="#757575" stop-opacity="0"/>
</linearGradient>
<clipPath id="clip0_5010_8022">
<path d="M0 12C0 5.37258 5.37258 0 12 0H339C345.627 0 351 5.37258 351 12V188C351 194.627 345.627 200 339 200H12C5.37258 200 0 194.627 0 188V12Z" fill="white"/>
</clipPath>
</defs>
</svg>
