<svg width="351" height="200" viewBox="0 0 351 200" fill="none" xmlns="http://www.w3.org/2000/svg">
<g filter="url(#filter0_b_4526_12349)">
<g clip-path="url(#clip0_4526_12349)">
<path d="M0 12C0 5.37258 5.37258 0 12 0H339C345.627 0 351 5.37258 351 12V188C351 194.627 345.627 200 339 200H12C5.37258 200 0 194.627 0 188V12Z" fill="#E4893B"/>
<g opacity="0.6">
<path d="M365.702 125.469C365.302 126.162 364.726 126.738 364.032 127.139C363.338 127.539 362.551 127.75 361.75 127.75H252.25C251.45 127.749 250.664 127.538 249.971 127.137C249.278 126.736 248.702 126.16 248.302 125.467C247.903 124.773 247.692 123.987 247.692 123.186C247.693 122.386 247.903 121.599 248.304 120.906C256.99 105.89 270.375 95.1223 285.996 90.018C278.269 85.4182 272.266 78.4092 268.908 70.0673C265.55 61.7254 265.023 52.512 267.409 43.8418C269.794 35.1717 274.96 27.5243 282.112 22.074C289.264 16.6237 298.008 13.6719 307 13.6719C315.993 13.6719 324.736 16.6237 331.889 22.074C339.041 27.5243 344.206 35.1717 346.592 43.8418C348.977 52.512 348.45 61.7254 345.093 70.0673C341.735 78.4092 335.732 85.4182 328.005 90.018C343.626 95.1223 357.011 105.89 365.697 120.906C366.098 121.599 366.31 122.386 366.311 123.187C366.312 123.988 366.102 124.775 365.702 125.469Z" fill="url(#paint0_linear_4526_12349)"/>
</g>
<path opacity="0.5" d="M268.895 31.9923C243.193 -2.74904 204.742 -25.8572 162.002 -32.2488C119.262 -38.6403 75.7336 -27.7917 40.9923 -2.08937C6.25098 23.6129 -16.8572 62.0635 -23.2488 104.804C-29.6403 147.544 -18.7917 191.072 6.91064 225.814L72.4068 177.358C59.5556 159.988 54.1313 138.223 57.3271 116.853C60.5229 95.4832 72.077 76.2579 89.4476 63.4068C106.818 50.5556 128.583 45.1313 149.953 48.3271C171.323 51.5228 190.548 63.0769 203.399 80.4476L268.895 31.9923Z" fill="url(#paint1_linear_4526_12349)"/>
<path opacity="0.5" d="M68.0001 176.584C80.5427 219.884 109.773 256.429 149.26 278.178C188.747 299.927 235.257 305.1 278.557 292.557C321.858 280.014 358.403 250.784 380.152 211.297C401.901 171.81 407.073 125.3 394.531 81.9998L312.898 105.646C319.169 127.296 316.583 150.551 305.709 170.295C294.834 190.038 276.562 204.653 254.911 210.924C233.261 217.196 210.006 214.61 190.263 203.735C170.519 192.86 155.904 174.588 149.633 152.938L68.0001 176.584Z" fill="url(#paint2_linear_4526_12349)"/>
<path d="M258.034 170.25C257.887 171.144 257.543 171.966 257 172.714C256.457 173.447 255.717 174.041 254.778 174.496C253.854 174.95 252.761 175.178 251.5 175.178H249.168L248.178 180.722H244.416L247.144 165.278H253.238C254.851 165.278 256.069 165.637 256.89 166.356C257.711 167.06 258.122 168.02 258.122 169.238C258.122 169.604 258.093 169.942 258.034 170.25ZM251.72 172.23C253.128 172.23 253.957 171.57 254.206 170.25C254.235 170.015 254.25 169.846 254.25 169.744C254.25 169.274 254.096 168.915 253.788 168.666C253.495 168.402 253.04 168.27 252.424 168.27H250.378L249.696 172.23H251.72Z" fill="url(#paint3_linear_4526_12349)"/>
<path d="M268.243 177.994H262.479L261.071 180.722H257.133L265.449 165.278H269.805L272.665 180.722H268.683L268.243 177.994ZM267.803 175.134L266.901 169.414L263.953 175.134H267.803Z" fill="url(#paint4_linear_4526_12349)"/>
<path d="M283.407 165.278C285.006 165.278 286.223 165.644 287.059 166.378C287.895 167.096 288.313 168.035 288.313 169.194C288.313 169.531 288.284 169.846 288.225 170.14C288.049 171.166 287.602 172.083 286.883 172.89C286.165 173.696 285.204 174.268 284.001 174.606L286.487 180.722H282.241L280.063 174.892H279.161L278.127 180.722H274.365L277.093 165.278H283.407ZM284.375 170.294C284.405 170.059 284.419 169.905 284.419 169.832C284.419 169.362 284.265 169.003 283.957 168.754C283.664 168.49 283.224 168.358 282.637 168.358H280.305L279.623 172.23H281.955C282.645 172.23 283.187 172.061 283.583 171.724C283.994 171.386 284.258 170.91 284.375 170.294Z" fill="url(#paint5_linear_4526_12349)"/>
<path d="M294.679 168.248L294.129 171.46H299.167L298.661 174.298H293.623L293.007 177.752H298.705L298.177 180.722H288.717L291.445 165.278H300.905L300.377 168.248H294.679Z" fill="url(#paint6_linear_4526_12349)"/>
<path d="M314.435 180.722H310.673L306.075 171.196L304.381 180.722H300.619L303.347 165.278H307.109L311.707 174.848L313.401 165.278H317.163L314.435 180.722Z" fill="url(#paint7_linear_4526_12349)"/>
<path d="M331 165.278L330.494 168.248H326.38L324.18 180.722H320.418L322.618 168.248H318.526L319.054 165.278H331Z" fill="url(#paint8_linear_4526_12349)"/>
</g>
</g>
<defs>
<filter id="filter0_b_4526_12349" x="-100" y="-100" width="551" height="400" filterUnits="userSpaceOnUse" color-interpolation-filters="sRGB">
<feFlood flood-opacity="0" result="BackgroundImageFix"/>
<feGaussianBlur in="BackgroundImageFix" stdDeviation="50"/>
<feComposite in2="SourceAlpha" operator="in" result="effect1_backgroundBlur_4526_12349"/>
<feBlend mode="normal" in="SourceGraphic" in2="effect1_backgroundBlur_4526_12349" result="shape"/>
</filter>
<linearGradient id="paint0_linear_4526_12349" x1="340" y1="10" x2="307" y2="124.922" gradientUnits="userSpaceOnUse">
<stop stop-color="white"/>
<stop offset="1" stop-color="white" stop-opacity="0"/>
</linearGradient>
<linearGradient id="paint1_linear_4526_12349" x1="40.9923" y1="-2.08936" x2="137.903" y2="128.903" gradientUnits="userSpaceOnUse">
<stop stop-color="#FBD20A"/>
<stop offset="1" stop-color="#FBD20A" stop-opacity="0"/>
</linearGradient>
<linearGradient id="paint2_linear_4526_12349" x1="278.557" y1="292.557" x2="231.265" y2="129.292" gradientUnits="userSpaceOnUse">
<stop stop-color="#FBD20A"/>
<stop offset="1" stop-color="#FBD20A" stop-opacity="0"/>
</linearGradient>
<linearGradient id="paint3_linear_4526_12349" x1="238.591" y1="180.572" x2="321.35" y2="168.208" gradientUnits="userSpaceOnUse">
<stop stop-color="white" stop-opacity="0.7"/>
<stop offset="0.480526" stop-color="white"/>
<stop offset="1" stop-color="white" stop-opacity="0.7"/>
</linearGradient>
<linearGradient id="paint4_linear_4526_12349" x1="238.591" y1="180.572" x2="321.35" y2="168.208" gradientUnits="userSpaceOnUse">
<stop stop-color="white" stop-opacity="0.7"/>
<stop offset="0.480526" stop-color="white"/>
<stop offset="1" stop-color="white" stop-opacity="0.7"/>
</linearGradient>
<linearGradient id="paint5_linear_4526_12349" x1="238.591" y1="180.572" x2="321.35" y2="168.208" gradientUnits="userSpaceOnUse">
<stop stop-color="white" stop-opacity="0.7"/>
<stop offset="0.480526" stop-color="white"/>
<stop offset="1" stop-color="white" stop-opacity="0.7"/>
</linearGradient>
<linearGradient id="paint6_linear_4526_12349" x1="238.591" y1="180.572" x2="321.35" y2="168.208" gradientUnits="userSpaceOnUse">
<stop stop-color="white" stop-opacity="0.7"/>
<stop offset="0.480526" stop-color="white"/>
<stop offset="1" stop-color="white" stop-opacity="0.7"/>
</linearGradient>
<linearGradient id="paint7_linear_4526_12349" x1="238.591" y1="180.572" x2="321.35" y2="168.208" gradientUnits="userSpaceOnUse">
<stop stop-color="white" stop-opacity="0.7"/>
<stop offset="0.480526" stop-color="white"/>
<stop offset="1" stop-color="white" stop-opacity="0.7"/>
</linearGradient>
<linearGradient id="paint8_linear_4526_12349" x1="238.591" y1="180.572" x2="321.35" y2="168.208" gradientUnits="userSpaceOnUse">
<stop stop-color="white" stop-opacity="0.7"/>
<stop offset="0.480526" stop-color="white"/>
<stop offset="1" stop-color="white" stop-opacity="0.7"/>
</linearGradient>
<clipPath id="clip0_4526_12349">
<path d="M0 12C0 5.37258 5.37258 0 12 0H339C345.627 0 351 5.37258 351 12V188C351 194.627 345.627 200 339 200H12C5.37258 200 0 194.627 0 188V12Z" fill="white"/>
</clipPath>
</defs>
</svg>
