<svg width="351" height="200" viewBox="0 0 351 200" fill="none" xmlns="http://www.w3.org/2000/svg">
<g filter="url(#filter0_b_4526_12342)">
<g clip-path="url(#clip0_4526_12342)">
<path d="M0 12C0 5.37258 5.37258 0 12 0H339C345.627 0 351 5.37258 351 12V188C351 194.627 345.627 200 339 200H12C5.37258 200 0 194.627 0 188V12Z" fill="#321254"/>
<g opacity="0.6">
<path d="M365.702 125.469C365.302 126.162 364.726 126.738 364.032 127.139C363.338 127.539 362.551 127.75 361.75 127.75H252.25C251.449 127.749 250.663 127.538 249.97 127.137C249.277 126.736 248.702 126.16 248.302 125.467C247.902 124.773 247.692 123.987 247.692 123.186C247.692 122.386 247.903 121.599 248.303 120.906C256.989 105.89 270.374 95.1223 285.995 90.018C278.269 85.4182 272.265 78.4092 268.908 70.0673C265.55 61.7254 265.023 52.512 267.409 43.8418C269.794 35.1717 274.959 27.5243 282.112 22.074C289.264 16.6237 298.008 13.6719 307 13.6719C315.992 13.6719 324.736 16.6237 331.888 22.074C339.041 27.5243 344.206 35.1717 346.591 43.8418C348.977 52.512 348.45 61.7254 345.092 70.0673C341.735 78.4092 335.731 85.4182 328.005 90.018C343.625 95.1223 357.011 105.89 365.697 120.906C366.098 121.599 366.31 122.386 366.311 123.187C366.312 123.988 366.102 124.775 365.702 125.469Z" fill="url(#paint0_linear_4526_12342)"/>
</g>
<path opacity="0.4" d="M268.895 31.9923C243.193 -2.74904 204.742 -25.8572 162.002 -32.2488C119.262 -38.6403 75.7336 -27.7917 40.9923 -2.08937C6.25098 23.6129 -16.8572 62.0635 -23.2488 104.804C-29.6403 147.544 -18.7917 191.072 6.91064 225.814L72.4068 177.358C59.5556 159.988 54.1313 138.223 57.3271 116.853C60.5229 95.4832 72.077 76.2579 89.4476 63.4068C106.818 50.5556 128.583 45.1313 149.953 48.3271C171.323 51.5228 190.548 63.0769 203.399 80.4476L268.895 31.9923Z" fill="url(#paint1_linear_4526_12342)"/>
<path opacity="0.4" d="M67.9999 176.584C80.5425 219.884 109.773 256.429 149.26 278.178C188.747 299.927 235.256 305.1 278.557 292.557C321.858 280.014 358.402 250.784 380.152 211.297C401.901 171.81 407.073 125.3 394.531 81.9998L312.898 105.646C319.169 127.296 316.583 150.551 305.708 170.295C294.834 190.038 276.562 204.653 254.911 210.924C233.261 217.196 210.006 214.61 190.262 203.735C170.519 192.86 155.904 174.588 149.633 152.938L67.9999 176.584Z" fill="url(#paint2_linear_4526_12342)"/>
<path d="M207.823 149.672L207.317 152.642H203.203L201.003 165.116H197.241L199.441 152.642H195.349L195.877 149.672H207.823Z" fill="url(#paint3_linear_4526_12342)"/>
<path d="M212.945 152.642L212.395 155.854H217.433L216.927 158.692H211.889L211.273 162.146H216.971L216.443 165.116H206.983L209.711 149.672H219.171L218.643 152.642H212.945Z" fill="url(#paint4_linear_4526_12342)"/>
<path d="M239.104 149.672L236.376 165.116H232.614L234.264 155.854L229.16 165.116H226.124L224.276 155.81L222.648 165.116H218.886L221.614 149.672H226.058L228.522 160.364L234.682 149.672H239.104Z" fill="url(#paint5_linear_4526_12342)"/>
<path d="M252.699 154.644C252.552 155.539 252.207 156.36 251.665 157.108C251.122 157.841 250.381 158.435 249.443 158.89C248.519 159.345 247.426 159.572 246.165 159.572H243.833L242.843 165.116H239.081L241.809 149.672H247.903C249.516 149.672 250.733 150.031 251.555 150.75C252.376 151.454 252.787 152.415 252.787 153.632C252.787 153.999 252.757 154.336 252.699 154.644ZM246.385 156.624C247.793 156.624 248.621 155.964 248.871 154.644C248.9 154.409 248.915 154.241 248.915 154.138C248.915 153.669 248.761 153.309 248.453 153.06C248.159 152.796 247.705 152.664 247.089 152.664H245.043L244.361 156.624H246.385Z" fill="url(#paint6_linear_4526_12342)"/>
<path d="M260.157 165.27C258.852 165.27 257.701 164.999 256.703 164.456C255.721 163.913 254.958 163.151 254.415 162.168C253.873 161.185 253.601 160.056 253.601 158.78C253.601 156.976 253.99 155.37 254.767 153.962C255.545 152.539 256.623 151.432 258.001 150.64C259.395 149.848 260.971 149.452 262.731 149.452C264.051 149.452 265.21 149.723 266.207 150.266C267.205 150.794 267.975 151.549 268.517 152.532C269.06 153.5 269.331 154.615 269.331 155.876C269.331 157.68 268.943 159.301 268.165 160.738C267.388 162.161 266.303 163.275 264.909 164.082C263.516 164.874 261.932 165.27 260.157 165.27ZM260.729 161.794C261.697 161.794 262.548 161.545 263.281 161.046C264.015 160.547 264.579 159.88 264.975 159.044C265.386 158.193 265.591 157.277 265.591 156.294C265.591 155.238 265.298 154.409 264.711 153.808C264.125 153.207 263.303 152.906 262.247 152.906C261.279 152.906 260.421 153.155 259.673 153.654C258.94 154.153 258.368 154.82 257.957 155.656C257.561 156.477 257.363 157.387 257.363 158.384C257.363 159.44 257.657 160.276 258.243 160.892C258.83 161.493 259.659 161.794 260.729 161.794Z" fill="url(#paint7_linear_4526_12342)"/>
<path d="M279.146 149.672C280.745 149.672 281.962 150.039 282.798 150.772C283.634 151.491 284.052 152.429 284.052 153.588C284.052 153.925 284.023 154.241 283.964 154.534C283.788 155.561 283.341 156.477 282.622 157.284C281.904 158.091 280.943 158.663 279.74 159L282.226 165.116H277.98L275.802 159.286H274.9L273.866 165.116H270.104L272.832 149.672H279.146ZM280.114 154.688C280.144 154.453 280.158 154.299 280.158 154.226C280.158 153.757 280.004 153.397 279.696 153.148C279.403 152.884 278.963 152.752 278.376 152.752H276.044L275.362 156.624H277.694C278.384 156.624 278.926 156.455 279.322 156.118C279.733 155.781 279.997 155.304 280.114 154.688Z" fill="url(#paint8_linear_4526_12342)"/>
<path d="M294.554 162.388H288.79L287.382 165.116H283.444L291.76 149.672H296.116L298.976 165.116H294.994L294.554 162.388ZM294.114 159.528L293.212 153.808L290.264 159.528H294.114Z" fill="url(#paint9_linear_4526_12342)"/>
<path d="M309.719 149.672C311.317 149.672 312.535 150.039 313.371 150.772C314.207 151.491 314.625 152.429 314.625 153.588C314.625 153.925 314.595 154.241 314.537 154.534C314.361 155.561 313.913 156.477 313.195 157.284C312.476 158.091 311.515 158.663 310.313 159L312.799 165.116H308.553L306.375 159.286H305.473L304.439 165.116H300.677L303.405 149.672H309.719ZM310.687 154.688C310.716 154.453 310.731 154.299 310.731 154.226C310.731 153.757 310.577 153.397 310.269 153.148C309.975 152.884 309.535 152.752 308.949 152.752H306.617L305.935 156.624H308.267C308.956 156.624 309.499 156.455 309.895 156.118C310.305 155.781 310.569 155.304 310.687 154.688Z" fill="url(#paint10_linear_4526_12342)"/>
<path d="M331 149.672L323.85 160.012L322.926 165.116H319.164L320.088 160.012L316.546 149.672H320.814L322.662 156.118L326.776 149.672H331Z" fill="url(#paint11_linear_4526_12342)"/>
<path d="M265.063 176.146C265.327 174.621 265.892 173.264 266.757 172.076C267.637 170.873 268.723 169.942 270.013 169.282C271.304 168.607 272.697 168.27 274.193 168.27C276.027 168.27 277.508 168.754 278.637 169.722C279.781 170.69 280.427 172.01 280.573 173.682H276.437C276.247 173.051 275.895 172.575 275.381 172.252C274.883 171.915 274.267 171.746 273.533 171.746C272.375 171.746 271.37 172.149 270.519 172.956C269.669 173.748 269.126 174.811 268.891 176.146C268.818 176.557 268.781 176.916 268.781 177.224C268.781 178.251 269.067 179.065 269.639 179.666C270.211 180.267 270.996 180.568 271.993 180.568C272.712 180.568 273.379 180.399 273.995 180.062C274.626 179.725 275.154 179.241 275.579 178.61H279.715C278.982 180.282 277.875 181.602 276.393 182.57C274.912 183.523 273.255 184 271.421 184C270.101 184 268.95 183.743 267.967 183.23C266.985 182.717 266.229 181.991 265.701 181.052C265.173 180.113 264.909 179.021 264.909 177.774C264.909 177.217 264.961 176.674 265.063 176.146Z" fill="url(#paint12_linear_4526_12342)"/>
<path d="M291.171 181.162H285.407L283.999 183.89H280.061L288.377 168.446H292.733L295.593 183.89H291.611L291.171 181.162ZM290.731 178.302L289.829 172.582L286.881 178.302H290.731Z" fill="url(#paint13_linear_4526_12342)"/>
<path d="M306.336 168.446C307.935 168.446 309.152 168.813 309.988 169.546C310.824 170.265 311.242 171.203 311.242 172.362C311.242 172.699 311.213 173.015 311.154 173.308C310.978 174.335 310.531 175.251 309.812 176.058C309.093 176.865 308.133 177.437 306.93 177.774L309.416 183.89H305.17L302.992 178.06H302.09L301.056 183.89H297.294L300.022 168.446H306.336ZM307.304 173.462C307.333 173.227 307.348 173.073 307.348 173C307.348 172.531 307.194 172.171 306.886 171.922C306.593 171.658 306.153 171.526 305.566 171.526H303.234L302.552 175.398H304.884C305.573 175.398 306.116 175.229 306.512 174.892C306.923 174.555 307.187 174.078 307.304 173.462Z" fill="url(#paint14_linear_4526_12342)"/>
<path d="M320.159 168.446C321.582 168.446 322.807 168.703 323.833 169.216C324.875 169.715 325.667 170.426 326.209 171.35C326.767 172.259 327.045 173.33 327.045 174.562C327.045 174.987 326.994 175.523 326.891 176.168C326.627 177.679 326.055 179.021 325.175 180.194C324.31 181.367 323.203 182.277 321.853 182.922C320.519 183.567 319.045 183.89 317.431 183.89H311.645L314.373 168.446H320.159ZM317.761 180.678C319.184 180.678 320.365 180.282 321.303 179.49C322.242 178.698 322.829 177.591 323.063 176.168C323.137 175.728 323.173 175.361 323.173 175.068C323.173 173.983 322.843 173.147 322.183 172.56C321.523 171.959 320.585 171.658 319.367 171.658H317.563L315.979 180.678H317.761Z" fill="url(#paint15_linear_4526_12342)"/>
</g>
</g>
<defs>
<filter id="filter0_b_4526_12342" x="-100" y="-100" width="551" height="400" filterUnits="userSpaceOnUse" color-interpolation-filters="sRGB">
<feFlood flood-opacity="0" result="BackgroundImageFix"/>
<feGaussianBlur in="BackgroundImageFix" stdDeviation="50"/>
<feComposite in2="SourceAlpha" operator="in" result="effect1_backgroundBlur_4526_12342"/>
<feBlend mode="normal" in="SourceGraphic" in2="effect1_backgroundBlur_4526_12342" result="shape"/>
</filter>
<linearGradient id="paint0_linear_4526_12342" x1="340" y1="10" x2="307" y2="124.922" gradientUnits="userSpaceOnUse">
<stop stop-color="white"/>
<stop offset="1" stop-color="white" stop-opacity="0"/>
</linearGradient>
<linearGradient id="paint1_linear_4526_12342" x1="40.9923" y1="-2.08936" x2="137.903" y2="128.903" gradientUnits="userSpaceOnUse">
<stop stop-color="#DA21D3" stop-opacity="0.94"/>
<stop offset="1" stop-color="#DED7D1" stop-opacity="0"/>
</linearGradient>
<linearGradient id="paint2_linear_4526_12342" x1="278.557" y1="292.557" x2="231.265" y2="129.292" gradientUnits="userSpaceOnUse">
<stop stop-color="#DA21D3" stop-opacity="0.94"/>
<stop offset="1" stop-color="#DED7D1" stop-opacity="0"/>
</linearGradient>
<linearGradient id="paint3_linear_4526_12342" x1="186.223" y1="183.664" x2="317.34" y2="169.946" gradientUnits="userSpaceOnUse">
<stop stop-color="white" stop-opacity="0.7"/>
<stop offset="0.480526" stop-color="white"/>
<stop offset="1" stop-color="white" stop-opacity="0.7"/>
</linearGradient>
<linearGradient id="paint4_linear_4526_12342" x1="186.223" y1="183.664" x2="317.34" y2="169.946" gradientUnits="userSpaceOnUse">
<stop stop-color="white" stop-opacity="0.7"/>
<stop offset="0.480526" stop-color="white"/>
<stop offset="1" stop-color="white" stop-opacity="0.7"/>
</linearGradient>
<linearGradient id="paint5_linear_4526_12342" x1="186.223" y1="183.664" x2="317.34" y2="169.946" gradientUnits="userSpaceOnUse">
<stop stop-color="white" stop-opacity="0.7"/>
<stop offset="0.480526" stop-color="white"/>
<stop offset="1" stop-color="white" stop-opacity="0.7"/>
</linearGradient>
<linearGradient id="paint6_linear_4526_12342" x1="186.223" y1="183.664" x2="317.34" y2="169.946" gradientUnits="userSpaceOnUse">
<stop stop-color="white" stop-opacity="0.7"/>
<stop offset="0.480526" stop-color="white"/>
<stop offset="1" stop-color="white" stop-opacity="0.7"/>
</linearGradient>
<linearGradient id="paint7_linear_4526_12342" x1="186.223" y1="183.664" x2="317.34" y2="169.946" gradientUnits="userSpaceOnUse">
<stop stop-color="white" stop-opacity="0.7"/>
<stop offset="0.480526" stop-color="white"/>
<stop offset="1" stop-color="white" stop-opacity="0.7"/>
</linearGradient>
<linearGradient id="paint8_linear_4526_12342" x1="186.223" y1="183.664" x2="317.34" y2="169.946" gradientUnits="userSpaceOnUse">
<stop stop-color="white" stop-opacity="0.7"/>
<stop offset="0.480526" stop-color="white"/>
<stop offset="1" stop-color="white" stop-opacity="0.7"/>
</linearGradient>
<linearGradient id="paint9_linear_4526_12342" x1="186.223" y1="183.664" x2="317.34" y2="169.946" gradientUnits="userSpaceOnUse">
<stop stop-color="white" stop-opacity="0.7"/>
<stop offset="0.480526" stop-color="white"/>
<stop offset="1" stop-color="white" stop-opacity="0.7"/>
</linearGradient>
<linearGradient id="paint10_linear_4526_12342" x1="186.223" y1="183.664" x2="317.34" y2="169.946" gradientUnits="userSpaceOnUse">
<stop stop-color="white" stop-opacity="0.7"/>
<stop offset="0.480526" stop-color="white"/>
<stop offset="1" stop-color="white" stop-opacity="0.7"/>
</linearGradient>
<linearGradient id="paint11_linear_4526_12342" x1="186.223" y1="183.664" x2="317.34" y2="169.946" gradientUnits="userSpaceOnUse">
<stop stop-color="white" stop-opacity="0.7"/>
<stop offset="0.480526" stop-color="white"/>
<stop offset="1" stop-color="white" stop-opacity="0.7"/>
</linearGradient>
<linearGradient id="paint12_linear_4526_12342" x1="186.223" y1="183.664" x2="317.34" y2="169.946" gradientUnits="userSpaceOnUse">
<stop stop-color="white" stop-opacity="0.7"/>
<stop offset="0.480526" stop-color="white"/>
<stop offset="1" stop-color="white" stop-opacity="0.7"/>
</linearGradient>
<linearGradient id="paint13_linear_4526_12342" x1="186.223" y1="183.664" x2="317.34" y2="169.946" gradientUnits="userSpaceOnUse">
<stop stop-color="white" stop-opacity="0.7"/>
<stop offset="0.480526" stop-color="white"/>
<stop offset="1" stop-color="white" stop-opacity="0.7"/>
</linearGradient>
<linearGradient id="paint14_linear_4526_12342" x1="186.223" y1="183.664" x2="317.34" y2="169.946" gradientUnits="userSpaceOnUse">
<stop stop-color="white" stop-opacity="0.7"/>
<stop offset="0.480526" stop-color="white"/>
<stop offset="1" stop-color="white" stop-opacity="0.7"/>
</linearGradient>
<linearGradient id="paint15_linear_4526_12342" x1="186.223" y1="183.664" x2="317.34" y2="169.946" gradientUnits="userSpaceOnUse">
<stop stop-color="white" stop-opacity="0.7"/>
<stop offset="0.480526" stop-color="white"/>
<stop offset="1" stop-color="white" stop-opacity="0.7"/>
</linearGradient>
<clipPath id="clip0_4526_12342">
<path d="M0 12C0 5.37258 5.37258 0 12 0H339C345.627 0 351 5.37258 351 12V188C351 194.627 345.627 200 339 200H12C5.37258 200 0 194.627 0 188V12Z" fill="white"/>
</clipPath>
</defs>
</svg>
