<svg width="351" height="200" viewBox="0 0 351 200" fill="none" xmlns="http://www.w3.org/2000/svg">
<rect width="351" height="200" fill="#E5E5E5"/>
<g id="Card" filter="url(#filter0_b_515_2649)">
<g clip-path="url(#clip0_515_2649)">
<path d="M0 12C0 5.37258 5.37258 0 12 0H339C345.627 0 351 5.37258 351 12V188C351 194.627 345.627 200 339 200H12C5.37258 200 0 194.627 0 188V12Z" fill="#990033"/>
<g id="Frame" opacity="0.6">
<path id="Vector" d="M365.702 125.469C365.302 126.162 364.726 126.738 364.032 127.139C363.338 127.539 362.551 127.75 361.75 127.75H252.25C251.45 127.749 250.664 127.538 249.971 127.137C249.278 126.736 248.702 126.16 248.302 125.467C247.903 124.773 247.692 123.987 247.692 123.186C247.693 122.386 247.903 121.599 248.304 120.906C256.99 105.89 270.375 95.1223 285.996 90.018C278.269 85.4182 272.266 78.4092 268.908 70.0673C265.55 61.7254 265.023 52.512 267.409 43.8418C269.794 35.1717 274.96 27.5243 282.112 22.074C289.264 16.6237 298.008 13.6719 307 13.6719C315.993 13.6719 324.736 16.6237 331.889 22.074C339.041 27.5243 344.206 35.1717 346.592 43.8418C348.977 52.512 348.45 61.7254 345.093 70.0673C341.735 78.4092 335.732 85.4182 328.005 90.018C343.626 95.1223 357.011 105.89 365.697 120.906C366.098 121.599 366.31 122.386 366.311 123.187C366.312 123.988 366.102 124.775 365.702 125.469Z" fill="url(#paint0_linear_515_2649)"/>
</g>
<path id="Ellipse 60" d="M268.895 31.9923C243.193 -2.74904 204.742 -25.8572 162.002 -32.2488C119.262 -38.6403 75.7336 -27.7917 40.9923 -2.08937C6.25098 23.6129 -16.8572 62.0635 -23.2488 104.804C-29.6403 147.544 -18.7917 191.072 6.91064 225.814L72.4068 177.358C59.5556 159.988 54.1313 138.223 57.3271 116.853C60.5229 95.4832 72.077 76.2579 89.4476 63.4068C106.818 50.5556 128.583 45.1313 149.953 48.3271C171.323 51.5228 190.548 63.0769 203.399 80.4476L268.895 31.9923Z" fill="url(#paint1_linear_515_2649)"/>
<path id="Ellipse 61" d="M67.9996 176.584C80.5422 219.885 109.772 256.429 149.259 278.179C188.747 299.928 235.256 305.1 278.557 292.558C321.858 280.015 358.402 250.785 380.151 211.298C401.901 171.811 407.073 125.301 394.53 82.0003L312.898 105.646C319.169 127.297 316.583 150.551 305.708 170.295C294.834 190.039 276.561 204.654 254.911 210.925C233.261 217.196 210.006 214.61 190.262 203.735C170.519 192.861 155.904 174.589 149.632 152.938L67.9996 176.584Z" fill="url(#paint2_linear_515_2649)"/>
<g id="CardHolder">
<g id="Frame 1321317081">
<g id="CardWord">
<g id="student">
<path d="M236.675 180.909C235.003 180.909 233.639 180.549 232.583 179.831C231.542 179.097 231.021 178.063 231.021 176.729C231.021 176.597 231.036 176.399 231.065 176.135H234.981C234.937 176.692 235.069 177.132 235.377 177.455C235.685 177.777 236.154 177.939 236.785 177.939C237.357 177.939 237.804 177.814 238.127 177.565C238.464 177.315 238.633 176.963 238.633 176.509C238.633 176.039 238.42 175.658 237.995 175.365C237.584 175.071 236.939 174.741 236.059 174.375C235.208 174.023 234.512 173.693 233.969 173.385C233.441 173.062 232.979 172.629 232.583 172.087C232.187 171.544 231.989 170.862 231.989 170.041C231.974 169.029 232.224 168.149 232.737 167.401C233.25 166.653 233.962 166.081 234.871 165.685C235.78 165.289 236.822 165.091 237.995 165.091C239.051 165.091 239.99 165.259 240.811 165.597C241.632 165.919 242.27 166.396 242.725 167.027C243.18 167.643 243.407 168.376 243.407 169.227C243.407 169.447 243.4 169.608 243.385 169.711H239.381C239.396 169.652 239.403 169.564 239.403 169.447C239.403 169.036 239.256 168.706 238.963 168.457C238.684 168.193 238.296 168.061 237.797 168.061C237.269 168.061 236.836 168.193 236.499 168.457C236.176 168.706 236.015 169.051 236.015 169.491C236.015 169.931 236.22 170.305 236.631 170.613C237.042 170.906 237.68 171.251 238.545 171.647C239.41 172.043 240.114 172.409 240.657 172.747C241.214 173.084 241.691 173.539 242.087 174.111C242.483 174.668 242.681 175.357 242.681 176.179C242.681 177.088 242.439 177.902 241.955 178.621C241.471 179.339 240.774 179.904 239.865 180.315C238.956 180.711 237.892 180.909 236.675 180.909Z" fill="url(#paint3_linear_515_2649)"/>
<path d="M258.061 165.311L257.555 168.281H253.441L251.241 180.755H247.479L249.679 168.281H245.587L246.115 165.311H258.061Z" fill="url(#paint4_linear_515_2649)"/>
<path d="M263.645 165.311L262.017 174.529C261.958 174.91 261.929 175.174 261.929 175.321C261.929 175.995 262.119 176.516 262.501 176.883C262.882 177.235 263.447 177.411 264.195 177.411C265.075 177.411 265.793 177.161 266.351 176.663C266.908 176.164 267.267 175.453 267.429 174.529L269.057 165.311H272.819L271.191 174.529C270.941 175.922 270.443 177.103 269.695 178.071C268.961 179.024 268.059 179.735 266.989 180.205C265.933 180.674 264.781 180.909 263.535 180.909C261.921 180.909 260.616 180.491 259.619 179.655C258.636 178.819 258.145 177.609 258.145 176.025C258.145 175.555 258.189 175.057 258.277 174.529L259.883 165.311H263.645Z" fill="url(#paint5_linear_515_2649)"/>
<path d="M281.246 165.311C282.669 165.311 283.894 165.567 284.92 166.081C285.962 166.579 286.754 167.291 287.296 168.215C287.854 169.124 288.132 170.195 288.132 171.427C288.132 171.852 288.081 172.387 287.978 173.033C287.714 174.543 287.142 175.885 286.262 177.059C285.397 178.232 284.29 179.141 282.94 179.787C281.606 180.432 280.132 180.755 278.518 180.755H272.732L275.46 165.311H281.246ZM278.848 177.543C280.271 177.543 281.452 177.147 282.39 176.355C283.329 175.563 283.916 174.455 284.15 173.033C284.224 172.593 284.26 172.226 284.26 171.933C284.26 170.847 283.93 170.011 283.27 169.425C282.61 168.823 281.672 168.523 280.454 168.523H278.65L277.066 177.543H278.848Z" fill="url(#paint6_linear_515_2649)"/>
<path d="M294.679 168.281L294.129 171.493H299.167L298.661 174.331H293.623L293.007 177.785H298.705L298.177 180.755H288.717L291.445 165.311H300.905L300.377 168.281H294.679Z" fill="url(#paint7_linear_515_2649)"/>
<path d="M314.435 180.755H310.673L306.075 171.229L304.381 180.755H300.619L303.347 165.311H307.109L311.707 174.881L313.401 165.311H317.163L314.435 180.755Z" fill="url(#paint8_linear_515_2649)"/>
<path d="M331 165.311L330.494 168.281H326.38L324.18 180.755H320.418L322.618 168.281H318.526L319.054 165.311H331Z" fill="url(#paint9_linear_515_2649)"/>
</g>
</g>
</g>
</g>
</g>
</g>
<defs>
<filter id="filter0_b_515_2649" x="-100" y="-100" width="551" height="400" filterUnits="userSpaceOnUse" color-interpolation-filters="sRGB">
<feFlood flood-opacity="0" result="BackgroundImageFix"/>
<feGaussianBlur in="BackgroundImageFix" stdDeviation="50"/>
<feComposite in2="SourceAlpha" operator="in" result="effect1_backgroundBlur_515_2649"/>
<feBlend mode="normal" in="SourceGraphic" in2="effect1_backgroundBlur_515_2649" result="shape"/>
</filter>
<linearGradient id="paint0_linear_515_2649" x1="340" y1="10" x2="307" y2="124.922" gradientUnits="userSpaceOnUse">
<stop stop-color="white"/>
<stop offset="1" stop-color="white" stop-opacity="0"/>
</linearGradient>
<linearGradient id="paint1_linear_515_2649" x1="40.9923" y1="-2.08936" x2="137.903" y2="128.903" gradientUnits="userSpaceOnUse">
<stop stop-color="#E26A01"/>
<stop offset="1" stop-color="#E26A01" stop-opacity="0"/>
</linearGradient>
<linearGradient id="paint2_linear_515_2649" x1="278.557" y1="292.558" x2="231.265" y2="129.292" gradientUnits="userSpaceOnUse">
<stop stop-color="#E26A01"/>
<stop offset="1" stop-color="#E26A01" stop-opacity="0"/>
</linearGradient>
<linearGradient id="paint3_linear_515_2649" x1="224.295" y1="180.755" x2="319.295" y2="164.755" gradientUnits="userSpaceOnUse">
<stop stop-color="white" stop-opacity="0.7"/>
<stop offset="0.480526" stop-color="white"/>
<stop offset="1" stop-color="white" stop-opacity="0.7"/>
</linearGradient>
<linearGradient id="paint4_linear_515_2649" x1="224.295" y1="180.755" x2="319.295" y2="164.755" gradientUnits="userSpaceOnUse">
<stop stop-color="white" stop-opacity="0.7"/>
<stop offset="0.480526" stop-color="white"/>
<stop offset="1" stop-color="white" stop-opacity="0.7"/>
</linearGradient>
<linearGradient id="paint5_linear_515_2649" x1="224.295" y1="180.755" x2="319.295" y2="164.755" gradientUnits="userSpaceOnUse">
<stop stop-color="white" stop-opacity="0.7"/>
<stop offset="0.480526" stop-color="white"/>
<stop offset="1" stop-color="white" stop-opacity="0.7"/>
</linearGradient>
<linearGradient id="paint6_linear_515_2649" x1="224.295" y1="180.755" x2="319.295" y2="164.755" gradientUnits="userSpaceOnUse">
<stop stop-color="white" stop-opacity="0.7"/>
<stop offset="0.480526" stop-color="white"/>
<stop offset="1" stop-color="white" stop-opacity="0.7"/>
</linearGradient>
<linearGradient id="paint7_linear_515_2649" x1="224.295" y1="180.755" x2="319.295" y2="164.755" gradientUnits="userSpaceOnUse">
<stop stop-color="white" stop-opacity="0.7"/>
<stop offset="0.480526" stop-color="white"/>
<stop offset="1" stop-color="white" stop-opacity="0.7"/>
</linearGradient>
<linearGradient id="paint8_linear_515_2649" x1="224.295" y1="180.755" x2="319.295" y2="164.755" gradientUnits="userSpaceOnUse">
<stop stop-color="white" stop-opacity="0.7"/>
<stop offset="0.480526" stop-color="white"/>
<stop offset="1" stop-color="white" stop-opacity="0.7"/>
</linearGradient>
<linearGradient id="paint9_linear_515_2649" x1="224.295" y1="180.755" x2="319.295" y2="164.755" gradientUnits="userSpaceOnUse">
<stop stop-color="white" stop-opacity="0.7"/>
<stop offset="0.480526" stop-color="white"/>
<stop offset="1" stop-color="white" stop-opacity="0.7"/>
</linearGradient>
<clipPath id="clip0_515_2649">
<path d="M0 12C0 5.37258 5.37258 0 12 0H339C345.627 0 351 5.37258 351 12V188C351 194.627 345.627 200 339 200H12C5.37258 200 0 194.627 0 188V12Z" fill="white"/>
</clipPath>
</defs>
</svg>
