<svg width="106" height="16" viewBox="0 0 106 16" fill="none" xmlns="http://www.w3.org/2000/svg">
<path d="M14.8035 4.315C14.6422 5.22434 14.2682 5.97967 13.6815 6.581C13.0949 7.18234 12.3909 7.60034 11.5695 7.835C12.3029 7.99634 12.8822 8.35567 13.3075 8.913C13.7329 9.47034 13.9455 10.123 13.9455 10.871C13.9455 11.1057 13.9235 11.333 13.8795 11.553C13.6595 12.8437 13.0289 13.8703 11.9875 14.633C10.9462 15.381 9.61886 15.755 8.00552 15.755H0.811523L3.53952 0.311003H10.4915C11.8849 0.311003 12.9629 0.597003 13.7255 1.169C14.4882 1.741 14.8695 2.533 14.8695 3.545C14.8695 3.79434 14.8475 4.051 14.8035 4.315ZM8.64352 6.581C9.27419 6.581 9.78019 6.44167 10.1615 6.163C10.5429 5.88434 10.7775 5.481 10.8655 4.953C10.8802 4.865 10.8875 4.74767 10.8875 4.601C10.8875 4.17567 10.7482 3.853 10.4695 3.633C10.1909 3.39834 9.78019 3.281 9.23752 3.281H6.77352L6.20152 6.581H8.64352ZM10.1395 11.047C10.1689 10.871 10.1835 10.739 10.1835 10.651C10.1835 10.2257 10.0295 9.89567 9.72152 9.661C9.41352 9.41167 8.98819 9.287 8.44552 9.287H5.71752L5.10152 12.763H7.87352C8.51886 12.763 9.03219 12.6163 9.41352 12.323C9.79486 12.0297 10.0369 11.6043 10.1395 11.047Z" fill="url(#paint0_linear_4210_734)"/>
<path d="M21.7375 0.311003L20.1095 9.529C20.0508 9.91034 20.0215 10.1743 20.0215 10.321C20.0215 10.9957 20.2121 11.5163 20.5935 11.883C20.9748 12.235 21.5395 12.411 22.2875 12.411C23.1675 12.411 23.8861 12.1617 24.4435 11.663C25.0008 11.1643 25.3601 10.453 25.5215 9.529L27.1495 0.311003H30.9115L29.2835 9.529C29.0341 10.9223 28.5355 12.103 27.7875 13.071C27.0541 14.0243 26.1521 14.7357 25.0815 15.205C24.0255 15.6743 22.8741 15.909 21.6275 15.909C20.0141 15.909 18.7088 15.491 17.7115 14.655C16.7288 13.819 16.2375 12.609 16.2375 11.025C16.2375 10.5557 16.2815 10.057 16.3695 9.529L17.9755 0.311003H21.7375Z" fill="url(#paint1_linear_4210_734)"/>
<path d="M36.9632 15.909C35.2912 15.909 33.9272 15.5497 32.8712 14.831C31.8299 14.0977 31.3092 13.0637 31.3092 11.729C31.3092 11.597 31.3239 11.399 31.3532 11.135H35.2692C35.2252 11.6923 35.3572 12.1323 35.6652 12.455C35.9732 12.7777 36.4425 12.939 37.0732 12.939C37.6452 12.939 38.0925 12.8143 38.4152 12.565C38.7525 12.3157 38.9212 11.9637 38.9212 11.509C38.9212 11.0397 38.7085 10.6583 38.2832 10.365C37.8725 10.0717 37.2272 9.74167 36.3472 9.375C35.4965 9.023 34.7999 8.693 34.2572 8.385C33.7292 8.06234 33.2672 7.62967 32.8712 7.087C32.4752 6.54434 32.2772 5.86234 32.2772 5.041C32.2625 4.029 32.5119 3.149 33.0252 2.401C33.5385 1.653 34.2499 1.081 35.1592 0.685002C36.0685 0.289003 37.1099 0.0910034 38.2832 0.0910034C39.3392 0.0910034 40.2779 0.25967 41.0992 0.597003C41.9205 0.91967 42.5585 1.39634 43.0132 2.027C43.4679 2.643 43.6952 3.37634 43.6952 4.227C43.6952 4.447 43.6879 4.60834 43.6732 4.711H39.6692C39.6839 4.65234 39.6912 4.56434 39.6912 4.447C39.6912 4.03634 39.5445 3.70634 39.2512 3.457C38.9725 3.193 38.5839 3.061 38.0852 3.061C37.5572 3.061 37.1245 3.193 36.7872 3.457C36.4645 3.70634 36.3032 4.051 36.3032 4.491C36.3032 4.931 36.5085 5.305 36.9192 5.613C37.3299 5.90634 37.9679 6.251 38.8332 6.647C39.6985 7.043 40.4025 7.40967 40.9452 7.747C41.5025 8.08434 41.9792 8.539 42.3752 9.111C42.7712 9.66834 42.9692 10.3577 42.9692 11.179C42.9692 12.0883 42.7272 12.9023 42.2432 13.621C41.7592 14.3397 41.0625 14.9043 40.1532 15.315C39.2439 15.711 38.1805 15.909 36.9632 15.909Z" fill="url(#paint2_linear_4210_734)"/>
<path d="M51.0007 0.311003L48.2727 15.755H44.5107L47.2387 0.311003H51.0007Z" fill="url(#paint3_linear_4210_734)"/>
<path d="M64.815 15.755H61.053L56.455 6.229L54.761 15.755H50.999L53.727 0.311003H57.489L62.087 9.881L63.781 0.311003H67.543L64.815 15.755Z" fill="url(#paint4_linear_4210_734)"/>
<path d="M73.504 3.281L72.954 6.493H77.992L77.486 9.331H72.448L71.832 12.785H77.53L77.002 15.755H67.542L70.27 0.311003H79.73L79.202 3.281H73.504Z" fill="url(#paint5_linear_4210_734)"/>
<path d="M85.5823 15.909C83.9103 15.909 82.5463 15.5497 81.4903 14.831C80.449 14.0977 79.9283 13.0637 79.9283 11.729C79.9283 11.597 79.943 11.399 79.9723 11.135H83.8883C83.8443 11.6923 83.9763 12.1323 84.2843 12.455C84.5923 12.7777 85.0617 12.939 85.6923 12.939C86.2643 12.939 86.7117 12.8143 87.0343 12.565C87.3717 12.3157 87.5403 11.9637 87.5403 11.509C87.5403 11.0397 87.3277 10.6583 86.9023 10.365C86.4917 10.0717 85.8463 9.74167 84.9663 9.375C84.1157 9.023 83.419 8.693 82.8763 8.385C82.3483 8.06234 81.8863 7.62967 81.4903 7.087C81.0943 6.54434 80.8963 5.86234 80.8963 5.041C80.8817 4.029 81.131 3.149 81.6443 2.401C82.1577 1.653 82.869 1.081 83.7783 0.685002C84.6877 0.289003 85.729 0.0910034 86.9023 0.0910034C87.9583 0.0910034 88.897 0.25967 89.7183 0.597003C90.5397 0.91967 91.1777 1.39634 91.6323 2.027C92.087 2.643 92.3143 3.37634 92.3143 4.227C92.3143 4.447 92.307 4.60834 92.2923 4.711H88.2883C88.303 4.65234 88.3103 4.56434 88.3103 4.447C88.3103 4.03634 88.1637 3.70634 87.8703 3.457C87.5917 3.193 87.203 3.061 86.7043 3.061C86.1763 3.061 85.7437 3.193 85.4063 3.457C85.0837 3.70634 84.9223 4.051 84.9223 4.491C84.9223 4.931 85.1277 5.305 85.5383 5.613C85.949 5.90634 86.587 6.251 87.4523 6.647C88.3177 7.043 89.0217 7.40967 89.5643 7.747C90.1217 8.08434 90.5983 8.539 90.9943 9.111C91.3903 9.66834 91.5883 10.3577 91.5883 11.179C91.5883 12.0883 91.3463 12.9023 90.8623 13.621C90.3783 14.3397 89.6817 14.9043 88.7723 15.315C87.863 15.711 86.7997 15.909 85.5823 15.909Z" fill="url(#paint6_linear_4210_734)"/>
<path d="M99.2679 15.909C97.5959 15.909 96.2319 15.5497 95.1759 14.831C94.1345 14.0977 93.6139 13.0637 93.6139 11.729C93.6139 11.597 93.6285 11.399 93.6579 11.135H97.5739C97.5299 11.6923 97.6619 12.1323 97.9699 12.455C98.2779 12.7777 98.7472 12.939 99.3779 12.939C99.9499 12.939 100.397 12.8143 100.72 12.565C101.057 12.3157 101.226 11.9637 101.226 11.509C101.226 11.0397 101.013 10.6583 100.588 10.365C100.177 10.0717 99.5319 9.74167 98.6519 9.375C97.8012 9.023 97.1045 8.693 96.5619 8.385C96.0339 8.06234 95.5719 7.62967 95.1759 7.087C94.7799 6.54434 94.5819 5.86234 94.5819 5.041C94.5672 4.029 94.8165 3.149 95.3299 2.401C95.8432 1.653 96.5546 1.081 97.4639 0.685002C98.3732 0.289003 99.4146 0.0910034 100.588 0.0910034C101.644 0.0910034 102.583 0.25967 103.404 0.597003C104.225 0.91967 104.863 1.39634 105.318 2.027C105.773 2.643 106 3.37634 106 4.227C106 4.447 105.993 4.60834 105.978 4.711H101.974C101.989 4.65234 101.996 4.56434 101.996 4.447C101.996 4.03634 101.849 3.70634 101.556 3.457C101.277 3.193 100.889 3.061 100.39 3.061C99.8619 3.061 99.4292 3.193 99.0919 3.457C98.7692 3.70634 98.6079 4.051 98.6079 4.491C98.6079 4.931 98.8132 5.305 99.2239 5.613C99.6346 5.90634 100.273 6.251 101.138 6.647C102.003 7.043 102.707 7.40967 103.25 7.747C103.807 8.08434 104.284 8.539 104.68 9.111C105.076 9.66834 105.274 10.3577 105.274 11.179C105.274 12.0883 105.032 12.9023 104.548 13.621C104.064 14.3397 103.367 14.9043 102.458 15.315C101.549 15.711 100.485 15.909 99.2679 15.909Z" fill="url(#paint7_linear_4210_734)"/>
<defs>
<linearGradient id="paint0_linear_4210_734" x1="-6.26501" y1="15.7551" x2="93.391" y2="-1.90364" gradientUnits="userSpaceOnUse">
<stop stop-color="#DED7D1"/>
<stop offset="0.480526" stop-color="#FFF2E6"/>
<stop offset="1" stop-color="#DED7D1"/>
</linearGradient>
<linearGradient id="paint1_linear_4210_734" x1="-6.26501" y1="15.7551" x2="93.391" y2="-1.90364" gradientUnits="userSpaceOnUse">
<stop stop-color="#DED7D1"/>
<stop offset="0.480526" stop-color="#FFF2E6"/>
<stop offset="1" stop-color="#DED7D1"/>
</linearGradient>
<linearGradient id="paint2_linear_4210_734" x1="-6.26501" y1="15.7551" x2="93.391" y2="-1.90364" gradientUnits="userSpaceOnUse">
<stop stop-color="#DED7D1"/>
<stop offset="0.480526" stop-color="#FFF2E6"/>
<stop offset="1" stop-color="#DED7D1"/>
</linearGradient>
<linearGradient id="paint3_linear_4210_734" x1="-6.26501" y1="15.7551" x2="93.391" y2="-1.90364" gradientUnits="userSpaceOnUse">
<stop stop-color="#DED7D1"/>
<stop offset="0.480526" stop-color="#FFF2E6"/>
<stop offset="1" stop-color="#DED7D1"/>
</linearGradient>
<linearGradient id="paint4_linear_4210_734" x1="-6.26501" y1="15.7551" x2="93.391" y2="-1.90364" gradientUnits="userSpaceOnUse">
<stop stop-color="#DED7D1"/>
<stop offset="0.480526" stop-color="#FFF2E6"/>
<stop offset="1" stop-color="#DED7D1"/>
</linearGradient>
<linearGradient id="paint5_linear_4210_734" x1="-6.26501" y1="15.7551" x2="93.391" y2="-1.90364" gradientUnits="userSpaceOnUse">
<stop stop-color="#DED7D1"/>
<stop offset="0.480526" stop-color="#FFF2E6"/>
<stop offset="1" stop-color="#DED7D1"/>
</linearGradient>
<linearGradient id="paint6_linear_4210_734" x1="-6.26501" y1="15.7551" x2="93.391" y2="-1.90364" gradientUnits="userSpaceOnUse">
<stop stop-color="#DED7D1"/>
<stop offset="0.480526" stop-color="#FFF2E6"/>
<stop offset="1" stop-color="#DED7D1"/>
</linearGradient>
<linearGradient id="paint7_linear_4210_734" x1="-6.26501" y1="15.7551" x2="93.391" y2="-1.90364" gradientUnits="userSpaceOnUse">
<stop stop-color="#DED7D1"/>
<stop offset="0.480526" stop-color="#FFF2E6"/>
<stop offset="1" stop-color="#DED7D1"/>
</linearGradient>
</defs>
</svg>
