<svg width="46" height="46" viewBox="0 0 46 46" fill="none" xmlns="http://www.w3.org/2000/svg">
<g filter="url(#filter0_d_3546_3901)">
<rect width="40" height="40" rx="20" transform="matrix(-1 0 0 1 43 0)" fill="white"/>
<path d="M13.927 19.9993C13.927 20.288 14.0417 20.5649 14.2459 20.7691C14.4501 20.9733 14.727 21.088 15.0157 21.088H28.3522L23.6781 25.7612C23.4736 25.9657 23.3587 26.2431 23.3587 26.5323C23.3587 26.8216 23.4736 27.099 23.6781 27.3035C23.8826 27.508 24.16 27.6229 24.4492 27.6229C24.7385 27.6229 25.0159 27.508 25.2204 27.3035L31.7525 20.7713C31.854 20.6702 31.9346 20.55 31.9895 20.4177C32.0445 20.2853 32.0728 20.1435 32.0728 20.0002C32.0728 19.8569 32.0445 19.715 31.9895 19.5827C31.9346 19.4503 31.854 19.3302 31.7525 19.229L25.2204 12.6969C25.1191 12.5956 24.9989 12.5153 24.8666 12.4605C24.7343 12.4056 24.5925 12.3774 24.4492 12.3774C24.306 12.3774 24.1642 12.4056 24.0319 12.4605C23.8996 12.5153 23.7794 12.5956 23.6781 12.6969C23.5768 12.7981 23.4965 12.9184 23.4417 13.0507C23.3869 13.183 23.3587 13.3248 23.3587 13.468C23.3587 13.6112 23.3869 13.7531 23.4417 13.8854C23.4965 14.0177 23.5768 14.1379 23.6781 14.2392L28.3522 18.9106H15.0157C14.727 18.9106 14.4501 19.0253 14.2459 19.2294C14.0417 19.4336 13.927 19.7105 13.927 19.9993Z" fill="#990033"/>
</g>
<defs>
<filter id="filter0_d_3546_3901" x="0" y="0" width="46" height="46" filterUnits="userSpaceOnUse" color-interpolation-filters="sRGB">
<feFlood flood-opacity="0" result="BackgroundImageFix"/>
<feColorMatrix in="SourceAlpha" type="matrix" values="0 0 0 0 0 0 0 0 0 0 0 0 0 0 0 0 0 0 127 0" result="hardAlpha"/>
<feOffset dy="3"/>
<feGaussianBlur stdDeviation="1.5"/>
<feColorMatrix type="matrix" values="0 0 0 0 0 0 0 0 0 0 0 0 0 0 0 0 0 0 0.2 0"/>
<feBlend mode="normal" in2="BackgroundImageFix" result="effect1_dropShadow_3546_3901"/>
<feBlend mode="normal" in="SourceGraphic" in2="effect1_dropShadow_3546_3901" result="shape"/>
</filter>
</defs>
</svg>
