<svg width="46" height="46" viewBox="0 0 46 46" fill="none" xmlns="http://www.w3.org/2000/svg">
<g filter="url(#filter0_d_3546_3897)">
<rect x="3" width="40" height="40" rx="20" fill="white"/>
<path d="M32.0728 19.9993C32.0728 20.288 31.9581 20.5649 31.754 20.7691C31.5498 20.9733 31.2729 21.088 30.9842 21.088H17.6477L22.3218 25.7612C22.5263 25.9657 22.6412 26.2431 22.6412 26.5323C22.6412 26.8216 22.5263 27.099 22.3218 27.3035C22.1173 27.508 21.8399 27.6229 21.5506 27.6229C21.2614 27.6229 20.984 27.508 20.7795 27.3035L14.2473 20.7713C14.1458 20.6702 14.0653 20.55 14.0104 20.4177C13.9554 20.2853 13.9271 20.1435 13.9271 20.0002C13.9271 19.8569 13.9554 19.715 14.0104 19.5827C14.0653 19.4503 14.1458 19.3302 14.2473 19.229L20.7795 12.6969C20.8808 12.5956 21.001 12.5153 21.1333 12.4605C21.2656 12.4056 21.4074 12.3774 21.5506 12.3774C21.6939 12.3774 21.8357 12.4056 21.968 12.4605C22.1003 12.5153 22.2205 12.5956 22.3218 12.6969C22.4231 12.7981 22.5034 12.9184 22.5582 13.0507C22.613 13.183 22.6412 13.3248 22.6412 13.468C22.6412 13.6112 22.613 13.7531 22.5582 13.8854C22.5034 14.0177 22.4231 14.1379 22.3218 14.2392L17.6477 18.9106H30.9842C31.2729 18.9106 31.5498 19.0253 31.754 19.2294C31.9581 19.4336 32.0728 19.7105 32.0728 19.9993Z" fill="#990033"/>
</g>
<defs>
<filter id="filter0_d_3546_3897" x="0" y="0" width="46" height="46" filterUnits="userSpaceOnUse" color-interpolation-filters="sRGB">
<feFlood flood-opacity="0" result="BackgroundImageFix"/>
<feColorMatrix in="SourceAlpha" type="matrix" values="0 0 0 0 0 0 0 0 0 0 0 0 0 0 0 0 0 0 127 0" result="hardAlpha"/>
<feOffset dy="3"/>
<feGaussianBlur stdDeviation="1.5"/>
<feColorMatrix type="matrix" values="0 0 0 0 0 0 0 0 0 0 0 0 0 0 0 0 0 0 0.2 0"/>
<feBlend mode="normal" in2="BackgroundImageFix" result="effect1_dropShadow_3546_3897"/>
<feBlend mode="normal" in="SourceGraphic" in2="effect1_dropShadow_3546_3897" result="shape"/>
</filter>
</defs>
</svg>
