<svg width="46" height="46" viewBox="0 0 46 46" fill="none" xmlns="http://www.w3.org/2000/svg">
<g filter="url(#filter0_d_3687_10991)">
<rect width="40" height="40" rx="20" transform="matrix(-1 0 0 1 43 0)" fill="white"/>
<path d="M13.9272 19.9993C13.9272 20.288 14.0419 20.5649 14.246 20.7691C14.4502 20.9733 14.7271 21.088 15.0158 21.088H28.3523L23.6782 25.7612C23.4737 25.9657 23.3588 26.2431 23.3588 26.5323C23.3588 26.8216 23.4737 27.099 23.6782 27.3035C23.8827 27.508 24.1601 27.6229 24.4494 27.6229C24.7386 27.6229 25.016 27.508 25.2205 27.3035L31.7527 20.7713C31.8542 20.6702 31.9347 20.55 31.9896 20.4177C32.0446 20.2853 32.0729 20.1435 32.0729 20.0002C32.0729 19.8569 32.0446 19.715 31.9896 19.5827C31.9347 19.4503 31.8542 19.3302 31.7527 19.229L25.2205 12.6969C25.1192 12.5956 24.999 12.5153 24.8667 12.4605C24.7344 12.4056 24.5926 12.3774 24.4494 12.3774C24.3061 12.3774 24.1643 12.4056 24.032 12.4605C23.8997 12.5153 23.7795 12.5956 23.6782 12.6969C23.5769 12.7981 23.4966 12.9184 23.4418 13.0507C23.387 13.183 23.3588 13.3248 23.3588 13.468C23.3588 13.6112 23.387 13.7531 23.4418 13.8854C23.4966 14.0177 23.5769 14.1379 23.6782 14.2392L28.3523 18.9106H15.0158C14.7271 18.9106 14.4502 19.0253 14.246 19.2294C14.0419 19.4336 13.9272 19.7105 13.9272 19.9993Z" fill="#990033"/>
</g>
<defs>
<filter id="filter0_d_3687_10991" x="0" y="0" width="46" height="46" filterUnits="userSpaceOnUse" color-interpolation-filters="sRGB">
<feFlood flood-opacity="0" result="BackgroundImageFix"/>
<feColorMatrix in="SourceAlpha" type="matrix" values="0 0 0 0 0 0 0 0 0 0 0 0 0 0 0 0 0 0 127 0" result="hardAlpha"/>
<feOffset dy="3"/>
<feGaussianBlur stdDeviation="1.5"/>
<feColorMatrix type="matrix" values="0 0 0 0 0 0 0 0 0 0 0 0 0 0 0 0 0 0 0.2 0"/>
<feBlend mode="normal" in2="BackgroundImageFix" result="effect1_dropShadow_3687_10991"/>
<feBlend mode="normal" in="SourceGraphic" in2="effect1_dropShadow_3687_10991" result="shape"/>
</filter>
</defs>
</svg>
