<svg width="42" height="43" viewBox="0 0 42 43" fill="none" xmlns="http://www.w3.org/2000/svg">
<rect y="0.5" width="42" height="42" rx="21" fill="#990033"/>
<path d="M30.6494 30.5011C30.5836 30.6151 30.4889 30.7098 30.3748 30.7756C30.2608 30.8415 30.1314 30.8761 29.9997 30.8761H11.9997C11.8681 30.876 11.7389 30.8412 11.625 30.7753C11.5111 30.7094 11.4165 30.6147 11.3508 30.5008C11.285 30.3868 11.2505 30.2575 11.2505 30.1259C11.2505 29.9943 11.2852 29.865 11.351 29.7511C12.7788 27.2826 14.9791 25.5126 17.5469 24.6736C16.2768 23.9175 15.2899 22.7653 14.738 21.394C14.186 20.0228 14.0994 18.5082 14.4915 17.083C14.8837 15.6578 15.7328 14.4006 16.9085 13.5047C18.0842 12.6088 19.5215 12.1235 20.9997 12.1235C22.4779 12.1235 23.9152 12.6088 25.0909 13.5047C26.2667 14.4006 27.1158 15.6578 27.5079 17.083C27.9 18.5082 27.8134 20.0228 27.2615 21.394C26.7095 22.7653 25.7227 23.9175 24.4525 24.6736C27.0203 25.5126 29.2207 27.2826 30.6485 29.7511C30.7144 29.865 30.7493 29.9943 30.7494 30.126C30.7496 30.2576 30.7151 30.387 30.6494 30.5011Z" fill="white"/>
</svg>
