<svg width="18" height="18" viewBox="0 0 18 18" fill="none" xmlns="http://www.w3.org/2000/svg">
<path d="M13.2375 4.76274C12.015 3.54024 10.2825 2.83524 8.37745 3.03024C5.62495 3.30774 3.35995 5.54274 3.05245 8.29524C2.63995 11.9327 5.45245 15.0002 8.99995 15.0002C11.3925 15.0002 13.4475 13.5977 14.4075 11.5802C14.6475 11.0777 14.2875 10.5002 13.7325 10.5002C13.455 10.5002 13.1925 10.6502 13.0725 10.8977C12.225 12.7202 10.1925 13.8752 7.97245 13.3802C6.30745 13.0127 4.96495 11.6552 4.61245 9.99024C3.98245 7.08024 6.19495 4.50024 8.99995 4.50024C10.245 4.50024 11.355 5.01774 12.165 5.83524L11.0325 6.96774C10.56 7.44024 10.89 8.25024 11.5575 8.25024H14.25C14.6625 8.25024 15 7.91274 15 7.50024V4.80774C15 4.14024 14.19 3.80274 13.7175 4.27524L13.2375 4.76274Z" fill="white"/>
</svg>
