<svg width="100" height="16" viewBox="0 0 100 16" fill="none" xmlns="http://www.w3.org/2000/svg">
<path d="M5.675 15.9088C4.003 15.9088 2.639 15.5495 1.583 14.8308C0.541663 14.0975 0.0209961 13.0635 0.0209961 11.7288C0.0209961 11.5968 0.0356628 11.3988 0.0649961 11.1348H3.981C3.937 11.6922 4.069 12.1322 4.377 12.4548C4.685 12.7775 5.15433 12.9388 5.785 12.9388C6.357 12.9388 6.80433 12.8142 7.127 12.5648C7.46433 12.3155 7.633 11.9635 7.633 11.5088C7.633 11.0395 7.42033 10.6582 6.995 10.3648C6.58433 10.0715 5.939 9.74149 5.059 9.37482C4.20833 9.02282 3.51166 8.69282 2.969 8.38482C2.441 8.06215 1.979 7.62949 1.583 7.08682C1.187 6.54415 0.988996 5.86215 0.988996 5.04082C0.97433 4.02882 1.22366 3.14882 1.737 2.40082C2.25033 1.65282 2.96166 1.08082 3.871 0.684819C4.78033 0.28882 5.82166 0.0908203 6.995 0.0908203C8.051 0.0908203 8.98966 0.259487 9.811 0.59682C10.6323 0.919486 11.2703 1.39615 11.725 2.02682C12.1797 2.64282 12.407 3.37615 12.407 4.22682C12.407 4.44682 12.3997 4.60815 12.385 4.71082H8.381C8.39566 4.65215 8.403 4.56415 8.403 4.44682C8.403 4.03615 8.25633 3.70615 7.963 3.45682C7.68433 3.19282 7.29566 3.06082 6.797 3.06082C6.269 3.06082 5.83633 3.19282 5.499 3.45682C5.17633 3.70615 5.015 4.05082 5.015 4.49082C5.015 4.93082 5.22033 5.30482 5.631 5.61282C6.04166 5.90615 6.67966 6.25082 7.545 6.64682C8.41033 7.04282 9.11433 7.40949 9.657 7.74682C10.2143 8.08415 10.691 8.53882 11.087 9.11082C11.483 9.66815 11.681 10.3575 11.681 11.1788C11.681 12.0882 11.439 12.9022 10.955 13.6208C10.471 14.3395 9.77433 14.9042 8.865 15.3148C7.95566 15.7108 6.89233 15.9088 5.675 15.9088Z" fill="url(#paint0_linear_4130_8509)"/>
<path d="M27.0605 0.31082L26.5545 3.28082H22.4405L20.2405 15.7548H16.4785L18.6785 3.28082H14.5865L15.1145 0.31082H27.0605Z" fill="url(#paint1_linear_4130_8509)"/>
<path d="M32.6446 0.31082L31.0166 9.52882C30.9579 9.91015 30.9286 10.1742 30.9286 10.3208C30.9286 10.9955 31.1193 11.5162 31.5006 11.8828C31.8819 12.2348 32.4466 12.4108 33.1946 12.4108C34.0746 12.4108 34.7933 12.1615 35.3506 11.6628C35.9079 11.1642 36.2673 10.4528 36.4286 9.52882L38.0566 0.31082H41.8186L40.1906 9.52882C39.9413 10.9222 39.4426 12.1028 38.6946 13.0708C37.9613 14.0242 37.0593 14.7355 35.9886 15.2048C34.9326 15.6742 33.7813 15.9088 32.5346 15.9088C30.9213 15.9088 29.6159 15.4908 28.6186 14.6548C27.6359 13.8188 27.1446 12.6088 27.1446 11.0248C27.1446 10.5555 27.1886 10.0568 27.2766 9.52882L28.8826 0.31082H32.6446Z" fill="url(#paint2_linear_4130_8509)"/>
<path d="M50.2463 0.31082C51.669 0.31082 52.8936 0.567487 53.9203 1.08082C54.9616 1.57949 55.7536 2.29082 56.2963 3.21482C56.8536 4.12415 57.1323 5.19482 57.1323 6.42682C57.1323 6.85215 57.081 7.38749 56.9783 8.03282C56.7143 9.54349 56.1423 10.8855 55.2623 12.0588C54.397 13.2322 53.2896 14.1415 51.9403 14.7868C50.6056 15.4322 49.1316 15.7548 47.5183 15.7548H41.7323L44.4603 0.31082H50.2463ZM47.8483 12.5428C49.271 12.5428 50.4516 12.1468 51.3903 11.3548C52.329 10.5628 52.9156 9.45549 53.1503 8.03282C53.2236 7.59282 53.2603 7.22615 53.2603 6.93282C53.2603 5.84749 52.9303 5.01149 52.2703 4.42482C51.6103 3.82349 50.6716 3.52282 49.4543 3.52282H47.6503L46.0663 12.5428H47.8483Z" fill="url(#paint3_linear_4130_8509)"/>
<path d="M63.6787 3.28082L63.1287 6.49282H68.1667L67.6607 9.33082H62.6227L62.0067 12.7848H67.7047L67.1767 15.7548H57.7167L60.4447 0.31082H69.9047L69.3767 3.28082H63.6787Z" fill="url(#paint4_linear_4130_8509)"/>
<path d="M83.435 15.7548H79.673L75.075 6.22882L73.381 15.7548H69.619L72.347 0.31082H76.109L80.707 9.88082L82.401 0.31082H86.163L83.435 15.7548Z" fill="url(#paint5_linear_4130_8509)"/>
<path d="M100 0.31082L99.494 3.28082H95.38L93.18 15.7548H89.418L91.618 3.28082H87.526L88.054 0.31082H100Z" fill="url(#paint6_linear_4130_8509)"/>
<defs>
<linearGradient id="paint0_linear_4130_8509" x1="-6.70508" y1="15.7549" x2="88.2949" y2="-0.245117" gradientUnits="userSpaceOnUse">
<stop stop-color="#DED7D1"/>
<stop offset="0.480526" stop-color="#FFF2E6"/>
<stop offset="1" stop-color="#DED7D1"/>
</linearGradient>
<linearGradient id="paint1_linear_4130_8509" x1="-6.70508" y1="15.7549" x2="88.2949" y2="-0.245117" gradientUnits="userSpaceOnUse">
<stop stop-color="#DED7D1"/>
<stop offset="0.480526" stop-color="#FFF2E6"/>
<stop offset="1" stop-color="#DED7D1"/>
</linearGradient>
<linearGradient id="paint2_linear_4130_8509" x1="-6.70508" y1="15.7549" x2="88.2949" y2="-0.245117" gradientUnits="userSpaceOnUse">
<stop stop-color="#DED7D1"/>
<stop offset="0.480526" stop-color="#FFF2E6"/>
<stop offset="1" stop-color="#DED7D1"/>
</linearGradient>
<linearGradient id="paint3_linear_4130_8509" x1="-6.70508" y1="15.7549" x2="88.2949" y2="-0.245117" gradientUnits="userSpaceOnUse">
<stop stop-color="#DED7D1"/>
<stop offset="0.480526" stop-color="#FFF2E6"/>
<stop offset="1" stop-color="#DED7D1"/>
</linearGradient>
<linearGradient id="paint4_linear_4130_8509" x1="-6.70508" y1="15.7549" x2="88.2949" y2="-0.245117" gradientUnits="userSpaceOnUse">
<stop stop-color="#DED7D1"/>
<stop offset="0.480526" stop-color="#FFF2E6"/>
<stop offset="1" stop-color="#DED7D1"/>
</linearGradient>
<linearGradient id="paint5_linear_4130_8509" x1="-6.70508" y1="15.7549" x2="88.2949" y2="-0.245117" gradientUnits="userSpaceOnUse">
<stop stop-color="#DED7D1"/>
<stop offset="0.480526" stop-color="#FFF2E6"/>
<stop offset="1" stop-color="#DED7D1"/>
</linearGradient>
<linearGradient id="paint6_linear_4130_8509" x1="-6.70508" y1="15.7549" x2="88.2949" y2="-0.245117" gradientUnits="userSpaceOnUse">
<stop stop-color="#DED7D1"/>
<stop offset="0.480526" stop-color="#FFF2E6"/>
<stop offset="1" stop-color="#DED7D1"/>
</linearGradient>
</defs>
</svg>
