<svg width="30" height="30" viewBox="0 0 30 30" fill="none" xmlns="http://www.w3.org/2000/svg">
<rect width="30" height="30" rx="4" fill="#AD5355"/>
<path d="M20.3335 9.6665H9.66683C8.92683 9.6665 8.34016 10.2598 8.34016 10.9998L8.3335 18.9998C8.3335 19.7398 8.92683 20.3332 9.66683 20.3332H20.3335C21.0735 20.3332 21.6668 19.7398 21.6668 18.9998V10.9998C21.6668 10.2598 21.0735 9.6665 20.3335 9.6665ZM19.6668 18.9998H10.3335C9.96683 18.9998 9.66683 18.6998 9.66683 18.3332V14.9998H20.3335V18.3332C20.3335 18.6998 20.0335 18.9998 19.6668 18.9998ZM20.3335 12.3332H9.66683V10.9998H20.3335V12.3332Z" fill="white"/>
</svg>
