<svg width="30" height="30" viewBox="0 0 30 30" fill="none" xmlns="http://www.w3.org/2000/svg">
<rect width="30" height="30" rx="4" fill="#AD5355"/>
<path d="M10.3333 14.3333H13C13.7333 14.3333 14.3333 13.7333 14.3333 13V10.3333C14.3333 9.6 13.7333 9 13 9H10.3333C9.6 9 9 9.6 9 10.3333V13C9 13.7333 9.6 14.3333 10.3333 14.3333ZM10.3333 10.3333H13V13H10.3333V10.3333Z" fill="white"/>
<path d="M10.3333 20.9998H13C13.7333 20.9998 14.3333 20.3998 14.3333 19.6665V16.9998C14.3333 16.2665 13.7333 15.6665 13 15.6665H10.3333C9.6 15.6665 9 16.2665 9 16.9998V19.6665C9 20.3998 9.6 20.9998 10.3333 20.9998ZM10.3333 16.9998H13V19.6665H10.3333V16.9998Z" fill="white"/>
<path d="M15.6665 10.3333V13C15.6665 13.7333 16.2665 14.3333 16.9998 14.3333H19.6665C20.3998 14.3333 20.9998 13.7333 20.9998 13V10.3333C20.9998 9.6 20.3998 9 19.6665 9H16.9998C16.2665 9 15.6665 9.6 15.6665 10.3333ZM19.6665 13H16.9998V10.3333H19.6665V13Z" fill="white"/>
<path d="M20.9998 20.6665V19.9998C20.9998 19.8132 20.8532 19.6665 20.6665 19.6665H19.9998C19.8132 19.6665 19.6665 19.8132 19.6665 19.9998V20.6665C19.6665 20.8532 19.8132 20.9998 19.9998 20.9998H20.6665C20.8532 20.9998 20.9998 20.8532 20.9998 20.6665Z" fill="white"/>
<path d="M15.6665 15.9998V16.6665C15.6665 16.8532 15.8132 16.9998 15.9998 16.9998H16.6665C16.8532 16.9998 16.9998 16.8532 16.9998 16.6665V15.9998C16.9998 15.8132 16.8532 15.6665 16.6665 15.6665H15.9998C15.8132 15.6665 15.6665 15.8132 15.6665 15.9998Z" fill="white"/>
<path d="M18 17H17.3333C17.1467 17 17 17.1467 17 17.3333V18C17 18.1867 17.1467 18.3333 17.3333 18.3333H18C18.1867 18.3333 18.3333 18.1867 18.3333 18V17.3333C18.3333 17.1467 18.1867 17 18 17Z" fill="white"/>
<path d="M15.6665 18.6668V19.3335C15.6665 19.5202 15.8132 19.6668 15.9998 19.6668H16.6665C16.8532 19.6668 16.9998 19.5202 16.9998 19.3335V18.6668C16.9998 18.4802 16.8532 18.3335 16.6665 18.3335H15.9998C15.8132 18.3335 15.6665 18.4802 15.6665 18.6668Z" fill="white"/>
<path d="M17.3333 20.9998H18C18.1867 20.9998 18.3333 20.8532 18.3333 20.6665V19.9998C18.3333 19.8132 18.1867 19.6665 18 19.6665H17.3333C17.1467 19.6665 17 19.8132 17 19.9998V20.6665C17 20.8532 17.1467 20.9998 17.3333 20.9998Z" fill="white"/>
<path d="M18.6668 19.6668H19.3335C19.5202 19.6668 19.6668 19.5202 19.6668 19.3335V18.6668C19.6668 18.4802 19.5202 18.3335 19.3335 18.3335H18.6668C18.4802 18.3335 18.3335 18.4802 18.3335 18.6668V19.3335C18.3335 19.5202 18.4802 19.6668 18.6668 19.6668Z" fill="white"/>
<path d="M19.3335 15.6665H18.6668C18.4802 15.6665 18.3335 15.8132 18.3335 15.9998V16.6665C18.3335 16.8532 18.4802 16.9998 18.6668 16.9998H19.3335C19.5202 16.9998 19.6668 16.8532 19.6668 16.6665V15.9998C19.6668 15.8132 19.5202 15.6665 19.3335 15.6665Z" fill="white"/>
<path d="M19.9998 18.3333H20.6665C20.8532 18.3333 20.9998 18.1867 20.9998 18V17.3333C20.9998 17.1467 20.8532 17 20.6665 17H19.9998C19.8132 17 19.6665 17.1467 19.6665 17.3333V18C19.6665 18.1867 19.8132 18.3333 19.9998 18.3333Z" fill="white"/>
</svg>
