<svg width="62" height="62" viewBox="0 0 62 62" fill="none" xmlns="http://www.w3.org/2000/svg">
<path d="M12.9167 28.4167H23.25C26.0917 28.4167 28.4167 26.0917 28.4167 23.25V12.9167C28.4167 10.075 26.0917 7.75 23.25 7.75H12.9167C10.075 7.75 7.75 10.075 7.75 12.9167V23.25C7.75 26.0917 10.075 28.4167 12.9167 28.4167ZM12.9167 12.9167H23.25V23.25H12.9167V12.9167Z" fill="#DAB7B3"/>
<path d="M12.9167 54.2497H23.25C26.0917 54.2497 28.4167 51.9247 28.4167 49.083V38.7497C28.4167 35.908 26.0917 33.583 23.25 33.583H12.9167C10.075 33.583 7.75 35.908 7.75 38.7497V49.083C7.75 51.9247 10.075 54.2497 12.9167 54.2497ZM12.9167 38.7497H23.25V49.083H12.9167V38.7497Z" fill="#DAB7B3"/>
<path d="M33.584 12.9167V23.25C33.584 26.0917 35.909 28.4167 38.7507 28.4167H49.084C51.9256 28.4167 54.2506 26.0917 54.2506 23.25V12.9167C54.2506 10.075 51.9256 7.75 49.084 7.75H38.7507C35.909 7.75 33.584 10.075 33.584 12.9167ZM49.084 23.25H38.7507V12.9167H49.084V23.25Z" fill="#DAB7B3"/>
<path d="M54.2507 52.958V50.3747C54.2507 49.6513 53.6823 49.083 52.959 49.083H50.3757C49.6523 49.083 49.084 49.6513 49.084 50.3747V52.958C49.084 53.6813 49.6523 54.2497 50.3757 54.2497H52.959C53.6823 54.2497 54.2507 53.6813 54.2507 52.958Z" fill="#DAB7B3"/>
<path d="M33.584 34.8747V37.458C33.584 38.1813 34.1523 38.7497 34.8757 38.7497H37.459C38.1823 38.7497 38.7506 38.1813 38.7506 37.458V34.8747C38.7506 34.1513 38.1823 33.583 37.459 33.583H34.8757C34.1523 33.583 33.584 34.1513 33.584 34.8747Z" fill="#DAB7B3"/>
<path d="M42.625 38.75H40.0417C39.3183 38.75 38.75 39.3183 38.75 40.0417V42.625C38.75 43.3483 39.3183 43.9167 40.0417 43.9167H42.625C43.3483 43.9167 43.9167 43.3483 43.9167 42.625V40.0417C43.9167 39.3183 43.3483 38.75 42.625 38.75Z" fill="#DAB7B3"/>
<path d="M33.584 45.2087V47.792C33.584 48.5153 34.1523 49.0837 34.8757 49.0837H37.459C38.1823 49.0837 38.7506 48.5153 38.7506 47.792V45.2087C38.7506 44.4853 38.1823 43.917 37.459 43.917H34.8757C34.1523 43.917 33.584 44.4853 33.584 45.2087Z" fill="#DAB7B3"/>
<path d="M40.0417 54.2497H42.625C43.3483 54.2497 43.9167 53.6813 43.9167 52.958V50.3747C43.9167 49.6513 43.3483 49.083 42.625 49.083H40.0417C39.3183 49.083 38.75 49.6513 38.75 50.3747V52.958C38.75 53.6813 39.3183 54.2497 40.0417 54.2497Z" fill="#DAB7B3"/>
<path d="M45.2077 49.0837H47.791C48.5143 49.0837 49.0827 48.5153 49.0827 47.792V45.2087C49.0827 44.4853 48.5143 43.917 47.791 43.917H45.2077C44.4843 43.917 43.916 44.4853 43.916 45.2087V47.792C43.916 48.5153 44.4843 49.0837 45.2077 49.0837Z" fill="#DAB7B3"/>
<path d="M47.791 33.583H45.2077C44.4843 33.583 43.916 34.1513 43.916 34.8747V37.458C43.916 38.1813 44.4843 38.7497 45.2077 38.7497H47.791C48.5143 38.7497 49.0827 38.1813 49.0827 37.458V34.8747C49.0827 34.1513 48.5143 33.583 47.791 33.583Z" fill="#DAB7B3"/>
<path d="M50.3757 43.9167H52.959C53.6823 43.9167 54.2507 43.3483 54.2507 42.625V40.0417C54.2507 39.3183 53.6823 38.75 52.959 38.75H50.3757C49.6523 38.75 49.084 39.3183 49.084 40.0417V42.625C49.084 43.3483 49.6523 43.9167 50.3757 43.9167Z" fill="#DAB7B3"/>
</svg>
