<svg width="212" height="38" viewBox="0 0 212 38" fill="none" xmlns="http://www.w3.org/2000/svg">
<path d="M26.918 34.9033C27.9413 34.9033 28.7708 34.0738 28.7708 33.0505C28.7708 32.0273 27.9413 31.1978 26.918 31.1978C25.8948 31.1978 25.0652 32.0273 25.0652 33.0505C25.0652 34.0738 25.8948 34.9033 26.918 34.9033Z" fill="#F6CF47"/>
<path d="M24.2224 0.777809L15.4548 9.5454L5.91036 19.0898L4.95097 18.1304L14.4954 8.586L11.6997 5.72432L1.11339 16.2942C0.400333 17.0103 0 17.9797 0 18.9903C0 20.0009 0.400333 20.9703 1.11339 21.6864L17.4076 38L18.466 36.9416L27.3161 28.0749L36.7761 18.6266L37.7355 19.586L28.2406 29.0314L31.1188 31.9096L41.2934 21.7029C42.0025 20.9847 42.4 20.0161 42.4 19.0068C42.4 17.9975 42.0025 17.0289 41.2934 16.3107L24.9293 0L24.2224 0.777809ZM28.9203 10.8349L29.6 11.5147L35.2409 17.172L34.2815 18.1314L28.6387 12.4721L13.9662 27.1456L13.6846 26.864L13.0048 26.1843L7.36402 20.5435L8.32341 19.5841L13.9642 25.2249L28.6368 10.5524L28.9203 10.8349Z" fill="#F6CF47"/>
<path d="M35.2389 17.1699L34.2795 18.1292L28.6387 12.4719L13.9662 27.1445L13.6846 26.8629L13.0048 26.1831L7.36596 20.5413L5.90939 19.0848L4.94999 18.1254L14.4944 8.58094L11.6997 5.72314L1.11339 16.293C0.400333 17.0091 0 17.9785 0 18.9891C0 19.9997 0.400333 20.9691 1.11339 21.6852L17.4076 37.9988L18.466 36.9404L27.3161 28.0737L36.7761 18.6255L35.2389 17.1699Z" fill="#343434"/>
<path d="M26.918 34.9033C27.9413 34.9033 28.7708 34.0738 28.7708 33.0505C28.7708 32.0273 27.9413 31.1978 26.918 31.1978C25.8948 31.1978 25.0652 32.0273 25.0652 33.0505C25.0652 34.0738 25.8948 34.9033 26.918 34.9033Z" fill="#343434"/>
<path d="M59.1917 18.2452C60.1002 18.4736 60.9734 18.8245 61.7873 19.2881C62.4136 19.6722 62.9715 20.1579 63.4381 20.7252C63.839 21.2424 64.1358 21.8323 64.3121 22.4624C64.5177 23.0984 64.6239 23.7624 64.6267 24.4308C64.6154 25.3312 64.3886 26.2159 63.9654 27.0108C63.5262 27.8122 62.9093 28.5025 62.1622 29.0287C61.3101 29.6151 60.3615 30.047 59.3597 30.3046C58.1425 30.6016 56.8893 30.7242 55.6377 30.6688C54.7344 30.6497 53.8359 30.5331 52.9576 30.3211C52.2284 30.1561 51.5228 29.9003 50.8572 29.5598C50.283 29.2816 49.7534 28.9193 49.2861 28.4849C48.8665 28.0923 48.499 27.6475 48.1927 27.1613C47.9032 26.7199 47.6745 26.2414 47.5129 25.7388C47.3546 25.2663 47.2491 24.7778 47.1983 24.2822C47.1478 24.0421 47.1478 23.794 47.1983 23.5539C47.2661 23.333 47.3727 23.1258 47.5129 22.9421C47.6558 22.7683 47.8296 22.6224 48.0256 22.512C48.238 22.407 48.469 22.3453 48.7054 22.3304C48.9348 22.3241 49.1639 22.3519 49.3851 22.4129C49.5971 22.467 49.7984 22.5566 49.9804 22.678C50.1726 22.8155 50.3357 22.9898 50.4601 23.1907C50.6029 23.4176 50.6986 23.6709 50.7417 23.9355C50.8335 24.4215 51.0128 24.8867 51.2709 25.3086C51.5247 25.7454 51.8686 26.1231 52.2798 26.4166C52.7292 26.7491 53.2329 27.0011 53.7684 27.1613C54.4102 27.3667 55.0795 27.4728 55.7532 27.476C56.3909 27.4957 57.0287 27.4459 57.6555 27.3274C58.1979 27.2161 58.7212 27.0267 59.2092 26.7652C59.6251 26.5441 59.9867 26.2333 60.2676 25.8553C60.528 25.5118 60.6728 25.0947 60.6813 24.6638C60.7035 24.3271 60.6545 23.9896 60.5374 23.6732C60.4202 23.3567 60.2377 23.0686 60.0016 22.8276C59.4203 22.2728 58.7006 21.8844 57.9177 21.7031L55.2211 20.9088L52.541 20.0455C51.6865 19.7923 50.8699 19.4252 50.1134 18.9541C49.5496 18.5949 49.0517 18.1416 48.6413 17.614C48.297 17.1559 48.0492 16.6326 47.913 16.0759C47.7834 15.5354 47.7224 14.9808 47.7314 14.4251C47.7546 13.7435 47.8773 13.0689 48.0956 12.4228C48.2813 11.8255 48.5727 11.2664 48.9559 10.772C49.3146 10.3192 49.7449 9.92825 50.2299 9.61452C50.7432 9.28327 51.2983 9.02202 51.8807 8.83768C52.4461 8.65839 53.0281 8.5364 53.6179 8.47354C54.2593 8.37857 54.9053 8.31795 55.5532 8.29195C56.1052 8.2774 56.6575 8.30989 57.204 8.38906C57.7644 8.47521 58.3165 8.60806 58.8548 8.78621C59.4283 8.96539 59.9816 9.20394 60.5056 9.49799C61.0126 9.79681 61.4842 10.1519 61.9116 10.5564C62.338 10.9711 62.7103 11.438 63.0196 11.946C63.3365 12.5047 63.5704 13.1066 63.7139 13.7327C63.7715 13.9665 63.7715 14.2107 63.7139 14.4445C63.6566 14.6696 63.549 14.8787 63.3993 15.0563C63.2452 15.2386 63.0534 15.3854 62.837 15.4864C62.5963 15.5882 62.3371 15.6388 62.0757 15.635C61.6364 15.6797 61.1964 15.5554 60.8454 15.2874C60.5415 15.0373 60.3174 14.7038 60.2006 14.328C60.0499 13.8583 59.8327 13.4127 59.5559 13.0044C59.3101 12.6373 58.9886 12.3271 58.613 12.0946C58.203 11.8521 57.7558 11.6789 57.2894 11.5819C56.7115 11.4738 56.1234 11.4296 55.5357 11.4498C54.4973 11.4123 53.4733 11.7017 52.608 12.2771C52.276 12.5139 52.0053 12.8265 51.8183 13.189C51.6314 13.5514 51.5336 13.9532 51.5331 14.361C51.5104 14.7655 51.6209 15.1663 51.8477 15.502C52.0864 15.8147 52.3831 16.0785 52.7216 16.2788C53.0998 16.4997 53.4989 16.6825 53.9131 16.8245C54.3433 16.9731 54.7735 17.0896 55.1706 17.2052L59.1917 18.2452Z" fill="#343434"/>
<path d="M68.1574 19.5195C68.1549 18.525 68.2548 17.5329 68.4555 16.5588C68.656 15.6338 68.9613 14.7346 69.3654 13.8787C69.7653 13.0553 70.2713 12.2878 70.8705 11.5958C71.4595 10.9086 72.1466 10.3121 72.9097 9.82558C73.7075 9.3059 74.5826 8.91589 75.5024 8.67003C76.5196 8.3838 77.5726 8.2445 78.6292 8.25637C79.4837 8.22838 80.3385 8.3004 81.1763 8.47097C81.8931 8.62257 82.5917 8.85045 83.2601 9.1507C83.8465 9.41727 84.4004 9.75025 84.9109 10.1431C85.3446 10.4854 85.7407 10.8727 86.0927 11.2987C86.3945 11.6566 86.64 12.0583 86.821 12.4901C86.9749 12.834 87.0593 13.205 87.0695 13.5816C87.1011 14.0699 86.954 14.5531 86.6559 14.9411C86.4858 15.1166 86.2788 15.2522 86.0499 15.338C85.821 15.4238 85.5759 15.4577 85.3323 15.4373C85.0898 15.4462 84.8479 15.4069 84.6206 15.3217C84.424 15.2374 84.2403 15.126 84.0748 14.9906C83.9042 14.8472 83.749 14.6864 83.6116 14.5109L83.198 13.9486L82.5182 13.0388C82.2633 12.7317 81.9696 12.4592 81.6443 12.228C81.2608 11.9751 80.8428 11.7789 80.4033 11.6453C79.8353 11.4729 79.2429 11.3948 78.6496 11.4142C78.0936 11.4138 77.5395 11.4789 76.9988 11.6084C76.4535 11.7502 75.9306 11.9672 75.4451 12.2532C74.9413 12.5423 74.4832 12.9046 74.0857 13.3281C73.6561 13.7872 73.2941 14.3051 73.0107 14.8663C72.6955 15.5071 72.4622 16.185 72.3164 16.8841C72.1287 17.7087 72.0398 18.5526 72.0513 19.3982C72.0411 20.4803 72.1804 21.5586 72.465 22.6026C72.702 23.5269 73.1242 24.3934 73.706 25.1497C74.2728 25.8583 74.9983 26.4238 75.8238 26.8005C76.7674 27.2314 77.7971 27.4407 78.8341 27.4122C79.395 27.4316 79.9546 27.3473 80.4849 27.1636C80.9237 27.0129 81.3368 26.7954 81.7094 26.5189C82.0483 26.2597 82.3539 25.9596 82.6192 25.6255C82.9008 25.3109 83.1485 24.9972 83.3805 24.6826L83.7942 24.1534C83.9347 23.9859 84.0838 23.8258 84.2409 23.6737C84.3843 23.5366 84.5456 23.4196 84.7206 23.3261C84.8715 23.2344 85.0411 23.178 85.2168 23.161C85.6821 23.1223 86.1443 23.2645 86.5073 23.5581C86.6674 23.7037 86.8066 23.8707 86.921 24.0543C87.02 24.2574 87.0855 24.4751 87.1152 24.6991C87.185 25.2013 87.1283 25.713 86.9501 26.1877C86.7731 26.6959 86.5039 27.167 86.1558 27.5773C85.7718 28.0434 85.3259 28.4547 84.8303 28.7998C84.3181 29.1855 83.7644 29.5129 83.1795 29.7758C82.5285 30.0492 81.8528 30.2595 81.1617 30.404C80.4381 30.5562 79.7007 30.6336 78.9613 30.6351C77.413 30.6835 75.8683 30.4597 74.3974 29.9738C73.1505 29.5239 72.02 28.8006 71.089 27.857C70.128 26.8626 69.404 25.6639 68.9712 24.3505C68.43 22.7979 68.1559 21.1648 68.1603 19.5205L68.1574 19.5195Z" fill="#343434"/>
<path d="M108.024 28.5509C108.026 28.8188 107.993 29.0858 107.927 29.3452C107.87 29.5695 107.775 29.7821 107.645 29.9735C107.489 30.1754 107.284 30.3347 107.05 30.4367C106.779 30.5709 106.478 30.6334 106.176 30.6183C105.878 30.6325 105.582 30.57 105.316 30.4367C105.063 30.3421 104.841 30.1822 104.671 29.9735C104.518 29.7702 104.405 29.5395 104.34 29.2938C104.273 29.0344 104.24 28.7673 104.243 28.4995V20.8427H94.1116V28.5509C94.1139 28.8188 94.0813 29.0858 94.0145 29.3452C93.9582 29.5944 93.8448 29.8271 93.6834 30.025C93.532 30.2267 93.3314 30.3862 93.1007 30.4882C92.8297 30.6223 92.5288 30.6849 92.2268 30.6697C91.9249 30.6834 91.6243 30.621 91.3528 30.4882C91.1206 30.366 90.9209 30.1902 90.7702 29.9754C90.6173 29.7722 90.5049 29.5414 90.4391 29.2957C90.3723 29.0363 90.3396 28.7693 90.342 28.5014V10.3059C90.3396 10.038 90.3723 9.77101 90.4391 9.51159C90.5049 9.26589 90.6173 9.03513 90.7702 8.83186C90.9266 8.63512 91.1259 8.4767 91.3528 8.36867C91.6269 8.24366 91.9256 8.18161 92.2268 8.18708C92.5282 8.17989 92.8272 8.24201 93.1007 8.36867C93.3314 8.47061 93.532 8.6301 93.6834 8.83186C93.8448 9.02977 93.9582 9.26245 94.0145 9.51159C94.0813 9.77101 94.1139 10.038 94.1116 10.3059V17.481H104.235V10.3719C104.232 10.1041 104.265 9.83704 104.332 9.57762C104.398 9.33192 104.51 9.10116 104.663 8.89789C104.819 8.69599 105.024 8.5367 105.258 8.4347C105.527 8.30896 105.822 8.24683 106.119 8.25312C106.42 8.24592 106.719 8.30805 106.993 8.4347C107.227 8.5367 107.431 8.69599 107.588 8.89789C107.741 9.10116 107.853 9.33192 107.919 9.57762C107.986 9.83704 108.018 10.1041 108.016 10.3719L108.024 28.5509Z" fill="#343434"/>
<path d="M153.96 10.9174C153.887 10.1836 154.107 9.45063 154.572 8.87819C155.115 8.42151 155.816 8.19597 156.524 8.24992C156.929 8.24473 157.329 8.34763 157.681 8.54803C158.05 8.77289 158.356 9.08549 158.575 9.4579L167.937 24.4985V10.3717C167.907 10.0773 167.935 9.77986 168.02 9.49647C168.105 9.21308 168.246 8.94944 168.434 8.72088C168.816 8.37897 169.31 8.18994 169.823 8.18994C170.336 8.18994 170.831 8.37897 171.213 8.72088C171.404 8.94816 171.547 9.21121 171.635 9.49465C171.723 9.77809 171.754 10.0762 171.725 10.3717V27.8894C171.769 28.6162 171.571 29.3371 171.163 29.9402C170.935 30.2008 170.648 30.4029 170.325 30.5297C170.003 30.6564 169.655 30.704 169.31 30.6685C169.015 30.6761 168.72 30.6371 168.437 30.5529C168.187 30.4776 167.952 30.36 167.742 30.2053C167.542 30.0604 167.364 29.8878 167.213 29.6926C167.053 29.5047 166.914 29.2995 166.799 29.0808L157.732 14.4578V28.6011C157.778 29.1695 157.6 29.7334 157.235 30.1723C156.844 30.4932 156.353 30.6685 155.846 30.6685C155.339 30.6685 154.848 30.4932 154.456 30.1723C154.092 29.7334 153.914 29.1695 153.96 28.6011V10.9174Z" fill="#343434"/>
<path d="M178.524 20.8921V27.3273H188.914C189.131 27.3197 189.347 27.365 189.542 27.4593C189.734 27.5418 189.908 27.6598 190.055 27.807C190.187 27.9569 190.288 28.1311 190.353 28.3197C190.44 28.5236 190.485 28.7428 190.485 28.9644C190.483 29.1912 190.438 29.4154 190.353 29.6257C190.274 29.8209 190.158 29.9986 190.01 30.1486C189.862 30.2985 189.687 30.4179 189.493 30.4997C189.297 30.5939 189.081 30.6393 188.864 30.6317H176.59C176.34 30.6338 176.092 30.5832 175.862 30.4832C175.636 30.3747 175.429 30.2293 175.25 30.053C175.081 29.8697 174.946 29.6567 174.853 29.4247C174.753 29.1835 174.703 28.9246 174.705 28.6634V10.2252C174.704 9.96419 174.755 9.70565 174.853 9.46387C174.95 9.23388 175.084 9.02156 175.25 8.8356C175.425 8.65908 175.633 8.51854 175.862 8.42194C176.089 8.312 176.338 8.25553 176.59 8.25686H188.864C189.192 8.2741 189.507 8.38513 189.774 8.57672C190.04 8.7683 190.245 9.03237 190.365 9.33744C190.486 9.64251 190.516 9.97572 190.452 10.2974C190.388 10.619 190.233 10.9155 190.005 11.1516C189.865 11.3105 189.689 11.4351 189.493 11.5157C189.298 11.6149 189.083 11.6659 188.864 11.6643H178.474V17.4905H188.002C188.275 17.5068 188.539 17.5881 188.774 17.7277C189.008 17.8672 189.206 18.061 189.35 18.2926C189.494 18.5243 189.581 18.7872 189.602 19.0592C189.624 19.3312 189.58 19.6045 189.474 19.856C189.39 20.0564 189.273 20.241 189.127 20.4017C188.987 20.5553 188.819 20.6792 188.63 20.7659C188.432 20.8506 188.218 20.8955 188.002 20.898L178.524 20.8921Z" fill="#343434"/>
<path d="M204.624 28.5672C204.625 28.8293 204.592 29.0904 204.526 29.3441C204.464 29.591 204.351 29.8224 204.195 30.0238C204.04 30.2308 203.835 30.3957 203.6 30.5035C203.325 30.6245 203.026 30.6809 202.726 30.6686C202.426 30.6776 202.128 30.6213 201.852 30.5035C201.617 30.3957 201.412 30.2308 201.257 30.0238C201.101 29.8224 200.988 29.591 200.926 29.3441C200.846 29.093 200.807 28.8307 200.81 28.5672V21.7019L194.194 11.2476C194.005 10.9433 193.897 10.5962 193.879 10.2387C193.857 9.91261 193.924 9.5867 194.073 9.29581C194.231 9.01171 194.458 8.77269 194.734 8.60151C195.059 8.42501 195.423 8.3338 195.793 8.33642C196.002 8.31649 196.212 8.31649 196.421 8.33642C196.594 8.38294 196.757 8.46132 196.901 8.56753C197.052 8.66634 197.186 8.78936 197.298 8.93167C197.425 9.09454 197.541 9.26584 197.646 9.44438L202.792 17.9469L207.904 9.39486L208.235 8.91516C208.444 8.63286 208.741 8.42793 209.079 8.33253C209.282 8.31363 209.487 8.31363 209.691 8.33253C209.897 8.33778 210.102 8.36545 210.302 8.41507C210.52 8.48397 210.726 8.58442 210.914 8.71319C211.107 8.86919 211.27 9.05985 211.394 9.27542C211.528 9.53562 211.591 9.82686 211.575 10.1193C211.607 10.2887 211.607 10.4626 211.575 10.632C211.513 10.8068 211.429 10.9734 211.327 11.1282L204.71 21.6534L204.624 28.5672Z" fill="#343434"/>
<path d="M121.686 10.9183C126.368 10.9183 129.261 14.0121 129.261 18.8916H132.188C132.243 17.4793 132.011 16.0705 131.508 14.7496C131.005 13.4288 130.241 12.223 129.261 11.2046C128.281 10.1861 127.105 9.37595 125.805 8.82254C124.504 8.26913 123.106 7.98389 121.692 7.98389C120.279 7.98389 118.88 8.26913 117.579 8.82254C116.279 9.37595 115.103 10.1861 114.123 11.2046C113.143 12.223 112.379 13.4288 111.876 14.7496C111.373 16.0705 111.142 17.4793 111.196 18.8916H114.124C114.127 14.0111 117.005 10.9183 121.686 10.9183Z" fill="#343434"/>
<path d="M128.171 24.3331C127.287 25.6606 126.01 26.6789 124.519 27.2459C123.029 27.8128 121.398 27.9002 119.855 27.4958C118.312 27.0914 116.934 26.2154 115.913 24.9901C114.892 23.7647 114.279 22.2512 114.16 20.6606H111.232C111.385 23.3481 112.547 25.8788 114.485 27.7465C116.423 29.6143 118.995 30.6814 121.686 30.7343C123.227 30.7271 124.745 30.3743 126.131 29.7021C127.517 29.0299 128.734 28.0553 129.693 26.8501C129.076 26.0833 128.564 25.2379 128.171 24.3361V24.3331Z" fill="#F6CF47"/>
<path d="M147.342 18.8904H150.27C150.328 16.0459 149.254 13.2949 147.284 11.2416C145.315 9.18838 142.611 8.00086 139.766 7.93994C138.217 7.94939 136.689 8.30826 135.297 8.98984C133.905 9.67141 132.685 10.6581 131.727 11.8766C132.348 12.6526 132.859 13.5095 133.249 14.4236C133.903 13.2922 134.859 12.3651 136.01 11.7459C137.161 11.1267 138.462 10.8397 139.766 10.9172C144.448 10.9172 147.342 14.0109 147.342 18.8904Z" fill="#F6CF47"/>
<path d="M132.19 18.8911H129.263V19.768H132.19V18.8911Z" fill="#343434"/>
<path d="M147.34 20.6609C147.339 21.631 147.14 22.5906 146.755 23.481C146.37 24.3713 145.807 25.1734 145.101 25.8381C144.394 26.5028 143.559 27.0159 142.647 27.346C141.735 27.676 140.765 27.816 139.796 27.7574C135.115 27.7574 132.222 24.6636 132.222 19.7676H129.263C129.151 21.1748 129.324 22.5901 129.772 23.9289C130.22 25.2676 130.933 26.5024 131.869 27.5594C132.804 28.6165 133.943 29.474 135.218 30.0809C136.492 30.6878 137.876 31.0315 139.287 31.0916C140.697 31.1517 142.105 30.9268 143.427 30.4305C144.748 29.9342 145.956 29.1766 146.978 28.203C148 27.2294 148.816 26.0597 149.376 24.7638C149.936 23.468 150.229 22.0726 150.237 20.6609H147.34Z" fill="#343434"/>
</svg>
