<svg width="43" height="42" viewBox="0 0 43 42" fill="none" xmlns="http://www.w3.org/2000/svg">
<path d="M35.9375 6.5625H7.0625C6.36631 6.5625 5.69863 6.83906 5.20634 7.33134C4.71406 7.82363 4.4375 8.49131 4.4375 9.1875V34.125C4.43762 34.3487 4.49491 34.5687 4.60394 34.764C4.71297 34.9593 4.87011 35.1235 5.06045 35.2411C5.2508 35.3586 5.46802 35.4255 5.6915 35.4355C5.91497 35.4455 6.13729 35.3982 6.33734 35.298L11 32.9667L15.6627 35.298C15.845 35.3893 16.0461 35.4368 16.25 35.4368C16.4539 35.4368 16.655 35.3893 16.8373 35.298L21.5 32.9667L26.1627 35.298C26.345 35.3893 26.5461 35.4368 26.75 35.4368C26.9539 35.4368 27.155 35.3893 27.3373 35.298L32 32.9667L36.6627 35.298C36.8627 35.3982 37.085 35.4455 37.3085 35.4355C37.532 35.4255 37.7492 35.3586 37.9395 35.2411C38.1299 35.1235 38.287 34.9593 38.3961 34.764C38.5051 34.5687 38.5624 34.3487 38.5625 34.125V9.1875C38.5625 8.49131 38.2859 7.82363 37.7937 7.33134C37.3014 6.83906 36.6337 6.5625 35.9375 6.5625ZM29.375 23.625H13.625C13.2769 23.625 12.9431 23.4867 12.6969 23.2406C12.4508 22.9944 12.3125 22.6606 12.3125 22.3125C12.3125 21.9644 12.4508 21.6306 12.6969 21.3844C12.9431 21.1383 13.2769 21 13.625 21H29.375C29.7231 21 30.0569 21.1383 30.3031 21.3844C30.5492 21.6306 30.6875 21.9644 30.6875 22.3125C30.6875 22.6606 30.5492 22.9944 30.3031 23.2406C30.0569 23.4867 29.7231 23.625 29.375 23.625ZM29.375 18.375H13.625C13.2769 18.375 12.9431 18.2367 12.6969 17.9906C12.4508 17.7444 12.3125 17.4106 12.3125 17.0625C12.3125 16.7144 12.4508 16.3806 12.6969 16.1344C12.9431 15.8883 13.2769 15.75 13.625 15.75H29.375C29.7231 15.75 30.0569 15.8883 30.3031 16.1344C30.5492 16.3806 30.6875 16.7144 30.6875 17.0625C30.6875 17.4106 30.5492 17.7444 30.3031 17.9906C30.0569 18.2367 29.7231 18.375 29.375 18.375Z" fill="#9F958C"/>
</svg>
