<svg width="50" height="50" viewBox="0 0 50 50" fill="none" xmlns="http://www.w3.org/2000/svg">
<g filter="url(#filter0_b_3546_11027)">
<g clip-path="url(#clip0_3546_11027)">
<path d="M0 14C0 6.26801 6.26801 0 14 0H36C43.732 0 50 6.26801 50 14V36C50 43.732 43.732 50 36 50H14C6.26801 50 0 43.732 0 36V14Z" fill="#4CAF50"/>
<path d="M32.5 17.5H17.5C16.9033 17.5 16.331 17.7371 15.909 18.159C15.4871 18.581 15.25 19.1533 15.25 19.75V30.25C15.25 30.8467 15.4871 31.419 15.909 31.841C16.331 32.2629 16.9033 32.5 17.5 32.5H32.5C33.0967 32.5 33.669 32.2629 34.091 31.841C34.5129 31.419 34.75 30.8467 34.75 30.25V19.75C34.75 19.1533 34.5129 18.581 34.091 18.159C33.669 17.7371 33.0967 17.5 32.5 17.5ZM27.205 24.7009C27.0999 25.2076 26.8235 25.6625 26.4222 25.9891C26.0209 26.3157 25.5193 26.4941 25.0019 26.4941C24.4845 26.4941 23.9829 26.3157 23.5816 25.9891C23.1803 25.6625 22.9038 25.2076 22.7987 24.7009C22.7297 24.3615 22.5453 24.0564 22.2768 23.8375C22.0083 23.6186 21.6723 23.4993 21.3259 23.5H16.75V22H33.25V23.5H28.6741C28.3283 23.5002 27.9932 23.6198 27.7255 23.8387C27.4578 24.0575 27.2739 24.3621 27.205 24.7009ZM17.5 19H32.5C32.6989 19 32.8897 19.079 33.0303 19.2197C33.171 19.3603 33.25 19.5511 33.25 19.75V20.5H16.75V19.75C16.75 19.5511 16.829 19.3603 16.9697 19.2197C17.1103 19.079 17.3011 19 17.5 19Z" fill="white"/>
</g>
</g>
<defs>
<filter id="filter0_b_3546_11027" x="-100" y="-100" width="250" height="250" filterUnits="userSpaceOnUse" color-interpolation-filters="sRGB">
<feFlood flood-opacity="0" result="BackgroundImageFix"/>
<feGaussianBlur in="BackgroundImageFix" stdDeviation="50"/>
<feComposite in2="SourceAlpha" operator="in" result="effect1_backgroundBlur_3546_11027"/>
<feBlend mode="normal" in="SourceGraphic" in2="effect1_backgroundBlur_3546_11027" result="shape"/>
</filter>
<clipPath id="clip0_3546_11027">
<path d="M0 14C0 6.26801 6.26801 0 14 0H36C43.732 0 50 6.26801 50 14V36C50 43.732 43.732 50 36 50H14C6.26801 50 0 43.732 0 36V14Z" fill="white"/>
</clipPath>
</defs>
</svg>
